SplineFontDB: 3.0
FontName: Nika-Regular
FullName: Nika Regular
FamilyName: Nika
Weight: Regular
Copyright: Copyright (c) 2016 Copyright Holder (info@font-store.ir), with Reserved Font Name "Farbod"
UComments: "2015-5-13: Created with FontForge (http://fontforge.org)"
Version: Version:0.0.5;RFB:1.2.5;Building:2016-03-23 15:33:22.512123
FONDName: RITA
ItalicAngle: 0
UnderlinePosition: 500
UnderlineWidth: 59
Ascent: 800
Descent: 500
InvalidEm: 0
sfntRevision: 0x00010000
LayerCount: 2
Layer: 0 1 "Back" 1
Layer: 1 1 "Fore" 0
PreferredKerning: 4
XUID: [1021 828 -1901974348 32649]
StyleMap: 0x0040
FSType: 0
OS2Version: 4
OS2_WeightWidthSlopeOnly: 0
OS2_UseTypoMetrics: 0
CreationTime: 1431477301
ModificationTime: 1458733733
PfmFamily: 33
TTFWeight: 400
TTFWidth: 5
LineGap: 0
VLineGap: 0
Panose: 2 0 5 3 0 0 0 0 0 0
OS2TypoAscent: 800
OS2TypoAOffset: 0
OS2TypoDescent: -500
OS2TypoDOffset: 0
OS2TypoLinegap: 0
OS2WinAscent: 1100
OS2WinAOffset: 0
OS2WinDescent: 700
OS2WinDOffset: 0
HheadAscent: 1100
HheadAOffset: 0
HheadDescent: -700
HheadDOffset: 0
OS2SubXSize: 780
OS2SubYSize: 839
OS2SubXOff: -107
OS2SubYOff: 168
OS2SupXSize: 780
OS2SupYSize: 839
OS2SupXOff: 369
OS2SupYOff: 575
OS2StrikeYSize: 59
OS2StrikeYPos: 310
OS2Vendor: 'RITA'
OS2CodePages: 00000040.00000000
OS2UnicodeRanges: 80002003.80002000.00000008.00000000
MacStyle: 0
Lookup: 4 1 1 "'ccmp' Glyph Composition/Decomposition in Arabic lookup 5" { "'ccmp' Glyph Composition/Decomposition in Arabic lookup 5-1"  } ['ccmp' ('DFLT' <'dflt' > 'arab' <'dflt' > ) ]
Lookup: 1 9 0 "'isol' Isolated Forms in Latin lookup 1" { "'isol' Isolated Forms in Latin lookup 1-1"  } ['isol' ('DFLT' <'dflt' > 'arab' <'dflt' > ) ]
Lookup: 1 9 0 "'fina' Terminal Forms in Arabic lookup 3" { "'fina' Terminal Forms in Arabic lookup 3-1"  } ['fina' ('DFLT' <'dflt' > 'arab' <'dflt' > ) ]
Lookup: 1 9 0 "'medi' Medial Forms in Arabic lookup 2" { "'medi' Medial Forms in Arabic lookup 2-1"  } ['medi' ('DFLT' <'dflt' > 'arab' <'dflt' > ) ]

StartChar: _.alef.isol
Encoding: 65536 -1 0
GlifName: _.alef.isol
Width: 217
VWidth: 1304
GlyphClass: 2
Flags: MW
LayerCount: 2
Fore
SplineSet
64 718 m 2,0,1
 64 744 64 744 77 758 c 128,-1,2
 90 772 90 772 141 800 c 1,3,4
 153 800 153 800 153 789 c 2,5,-1
 153 -0 l 1,6,7
 120 -25 120 -25 102 -25 c 0,8,9
 89 -25 89 -25 89 -10 c 2,10,-1
 64 700 l 1,11,-1
 64 718 l 2,0,1
EndSplineSet
Validated: 1
Colour: ffda6b
EndChar

StartChar: _.alef.fina
Encoding: 65537 -1 1
GlifName: _.alef.fina
Width: 307
VWidth: 1304
GlyphClass: 2
Flags: MW
LayerCount: 2
Fore
SplineSet
64 718 m 2,0,1
 64 744 64 744 77 758 c 128,-1,2
 90 772 90 772 141 800 c 1,3,4
 153 800 153 800 153 789 c 2,5,-1
 153 160 l 2,6,7
 153 126 153 126 185 119 c 0,8,9
 246 100 246 100 307 100 c 1,10,-1
 307 -0 l 1,11,12
 214 -0 214 -0 163 27 c 0,13,14
 126 45 126 45 107 68 c 0,15,16
 103 73 103 73 99.5 78.5 c 128,-1,17
 96 84 96 84 93.5 91 c 128,-1,18
 91 98 91 98 89 103.5 c 128,-1,19
 87 109 87 109 85.5 118 c 128,-1,20
 84 127 84 127 83 132 c 128,-1,21
 82 137 82 137 81.5 147.5 c 128,-1,22
 81 158 81 158 80.5 161.5 c 128,-1,23
 80 165 80 165 79.5 177 c 128,-1,24
 79 189 79 189 79 191 c 2,25,-1
 64 700 l 1,26,-1
 64 718 l 2,0,1
EndSplineSet
Validated: 1
Colour: ffda6b
EndChar

StartChar: _.beh.isol
Encoding: 65540 -1 4
GlifName: _.beh.isol
Width: 930
VWidth: 1304
GlyphClass: 2
UnlinkRmOvrlpSave: 1
Flags: MW
LayerCount: 2
Fore
SplineSet
64 217 m 0,0,1
 64 302 64 302 105 412 c 1,2,-1
 166 388 l 1,3,4
 135 311 135 311 135 256 c 0,5,6
 135 100 135 100 369 100 c 2,7,-1
 374 100 l 2,8,9
 584 100 584 100 786 171 c 1,10,11
 788 185 788 185 788 194 c 0,12,13
 788 207 788 207 786 222 c 128,-1,14
 784 237 784 237 778.5 259.5 c 128,-1,15
 773 282 773 282 769.5 293 c 128,-1,16
 766 304 766 304 756.5 336.5 c 128,-1,17
 747 369 747 369 744 378 c 1,18,-1
 821 443 l 1,19,20
 866 308 866 308 866 230 c 0,21,22
 866 159 866 159 829 116 c 0,23,24
 804 84 804 84 754 66 c 1,25,-1
 754 65 l 1,26,27
 685 43 685 43 643 31.5 c 128,-1,28
 601 20 601 20 523.5 9.5 c 128,-1,29
 446 -1 446 -1 358 -1 c 0,30,31
 64 -1 64 -1 64 217 c 0,0,1
EndSplineSet
Colour: ffda6b
EndChar

StartChar: _.beh.fina
Encoding: 65541 -1 5
GlifName: _.beh.fina
Width: 1025
VWidth: 1304
GlyphClass: 2
UnlinkRmOvrlpSave: 1
Flags: MW
LayerCount: 2
Fore
SplineSet
64 217 m 0,0,1
 64 302 64 302 105 412 c 1,2,-1
 166 388 l 1,3,4
 135 311 135 311 135 256 c 0,5,6
 135 100 135 100 369 100 c 2,7,-1
 374 100 l 2,8,9
 582 100 582 100 789 171 c 1,10,-1
 763 305 l 1,11,-1
 842 320 l 1,12,-1
 859 229 l 2,13,14
 860 223 860 223 863 207 c 128,-1,15
 866 191 866 191 867 187 c 128,-1,16
 868 183 868 183 870.5 171.5 c 128,-1,17
 873 160 873 160 875 157 c 128,-1,18
 877 154 877 154 881.5 146 c 128,-1,19
 886 138 886 138 890 135 c 128,-1,20
 894 132 894 132 901 126.5 c 128,-1,21
 908 121 908 121 916 118 c 128,-1,22
 924 115 924 115 935 111 c 0,23,24
 983 100 983 100 1025 100 c 1,25,-1
 1025 -0 l 1,26,27
 932 -0 932 -0 881 27 c 1,28,29
 828 49 828 49 807 93 c 1,30,31
 785 77 785 77 753 65 c 0,32,33
 684 43 684 43 642.5 31.5 c 128,-1,34
 601 20 601 20 523.5 9.5 c 128,-1,35
 446 -1 446 -1 358 -1 c 0,36,37
 64 -1 64 -1 64 217 c 0,0,1
EndSplineSet
Colour: ffda6b
EndChar

StartChar: _.beh.medi
Encoding: 65542 -1 6
GlifName: _.beh.medi
Width: 418
VWidth: 1304
GlyphClass: 2
UnlinkRmOvrlpSave: 1
Flags: MW
LayerCount: 2
Fore
SplineSet
218 68 m 1,0,1
 185 31 185 31 142.5 15.5 c 128,-1,2
 100 0 100 0 25 0 c 2,3,-1
 -1 -0 l 2,4,5
 -19 -0 -19 -0 -34.5 15 c 128,-1,6
 -50 30 -50 30 -50 49 c 0,7,8
 -50 69 -50 69 -35 84.5 c 128,-1,9
 -20 100 -20 100 -1 100 c 2,10,-1
 25 100 l 2,11,12
 118 100 118 100 184 135 c 1,13,-1
 184 315 l 1,14,-1
 264 315 l 1,15,-1
 264 160 l 2,16,17
 264 126 264 126 296 119 c 0,18,19
 357 100 357 100 418 100 c 1,20,-1
 418 -0 l 1,21,22
 325 -0 325 -0 274 27 c 0,23,24
 237 45 237 45 218 68 c 1,0,1
EndSplineSet
Colour: ffda6b
EndChar

StartChar: _.beh.init
Encoding: 65543 -1 7
GlifName: _.beh.init
Width: 327
VWidth: 1197
GlyphClass: 1
UnlinkRmOvrlpSave: 1
Flags: MW
LayerCount: 2
Fore
SplineSet
-50 49 m 0,0,1
 -50 69 -50 69 -35 84.5 c 128,-1,2
 -20 100 -20 100 -1 100 c 2,3,-1
 33 100 l 2,4,5
 114 100 114 100 186 136 c 0,6,7
 186 137 186 137 186.5 141 c 128,-1,8
 187 145 187 145 187 147 c 0,9,10
 187 194 187 194 143 335 c 1,11,-1
 220 400 l 1,12,13
 263 273 263 273 263 190 c 0,14,15
 263 0 263 0 28 0 c 2,16,-1
 -1 -0 l 2,17,18
 -19 -0 -19 -0 -34.5 15 c 128,-1,19
 -50 30 -50 30 -50 49 c 0,0,1
EndSplineSet
Colour: ffda6b
EndChar

StartChar: _.heh.isol
Encoding: 65544 -1 8
GlifName: _.heh.isol
Width: 785
VWidth: 1304
GlyphClass: 1
UnlinkRmOvrlpSave: 1
Flags: MW
LayerCount: 2
Fore
SplineSet
64 253 m 1,0,1
 96 346 96 346 137 388.5 c 128,-1,2
 178 431 178 431 231 431 c 0,3,4
 278 431 278 431 357 406 c 128,-1,5
 436 381 436 381 533 355.5 c 128,-1,6
 630 330 630 330 721 330 c 1,7,-1
 682 220 l 1,8,9
 664 220 664 220 654 221 c 1,10,-1
 654 220 l 1,11,12
 567 220 567 220 481 195 c 128,-1,13
 395 170 395 170 329.5 129 c 128,-1,14
 264 88 264 88 218 34.5 c 128,-1,15
 172 -19 172 -19 160 -74 c 0,16,17
 156 -96 156 -96 156 -107 c 0,18,19
 156 -187 156 -187 239.5 -243.5 c 128,-1,20
 323 -300 323 -300 489 -300 c 0,21,22
 566 -300 566 -300 654 -287 c 1,23,-1
 633 -387 l 1,24,25
 542 -400 542 -400 460 -400 c 0,26,27
 279 -400 279 -400 186.5 -333 c 128,-1,28
 94 -266 94 -266 94 -138 c 0,29,30
 94 -107 94 -107 98 -79 c 0,31,32
 115 34 115 34 201.5 131.5 c 128,-1,33
 288 229 288 229 425 279 c 1,34,35
 292 324 292 324 241 324 c 0,36,37
 147 324 147 324 106 225 c 1,38,-1
 64 253 l 1,0,1
EndSplineSet
Colour: ffda6b
EndChar

StartChar: _.heh.fina
Encoding: 65545 -1 9
GlifName: _.heh.fina
Width: 789
VWidth: 1304
GlyphClass: 1
UnlinkRmOvrlpSave: 1
Flags: MW
LayerCount: 2
Fore
SplineSet
64 253 m 1,0,1
 96 346 96 346 137 388.5 c 128,-1,2
 178 431 178 431 231 431 c 0,3,4
 278 431 278 431 357 406 c 128,-1,5
 436 381 436 381 533 355.5 c 128,-1,6
 630 330 630 330 721 330 c 1,7,-1
 682 220 l 1,8,9
 664 220 664 220 654 221 c 1,10,-1
 654 220 l 1,11,12
 631 220 631 220 587 216 c 1,13,14
 596 156 596 156 634.5 128 c 128,-1,15
 673 100 673 100 748 100 c 2,16,-1
 789 100 l 1,17,-1
 789 -0 l 1,18,-1
 748 -0 l 2,19,20
 534 -0 534 -0 512 203 c 1,21,22
 378 172 378 172 279 93.5 c 128,-1,23
 180 15 180 15 160 -74 c 0,24,25
 156 -96 156 -96 156 -107 c 0,26,27
 156 -187 156 -187 239.5 -243.5 c 128,-1,28
 323 -300 323 -300 489 -300 c 0,29,30
 566 -300 566 -300 654 -287 c 1,31,-1
 633 -387 l 1,32,33
 542 -400 542 -400 460 -400 c 0,34,35
 279 -400 279 -400 186.5 -333 c 128,-1,36
 94 -266 94 -266 94 -138 c 0,37,38
 94 -107 94 -107 98 -79 c 0,39,40
 115 34 115 34 201.5 131.5 c 128,-1,41
 288 229 288 229 425 279 c 1,42,43
 292 324 292 324 241 324 c 0,44,45
 147 324 147 324 106 225 c 1,46,-1
 64 253 l 1,0,1
EndSplineSet
Colour: ffda6b
EndChar

StartChar: _.heh.medi
Encoding: 65546 -1 10
GlifName: _.heh.medi
Width: 780
VWidth: 1304
GlyphClass: 1
UnlinkRmOvrlpSave: 1
Flags: MW
LayerCount: 2
Fore
SplineSet
-50 50 m 128,-1,1
 -50 69 -50 69 -35 84.5 c 128,-1,2
 -20 100 -20 100 -1 100 c 2,3,-1
 68 100 l 2,4,5
 132 100 132 100 185 110 c 128,-1,6
 238 120 238 120 281 139.5 c 128,-1,7
 324 159 324 159 352.5 176.5 c 128,-1,8
 381 194 381 194 420.5 222 c 128,-1,9
 460 250 460 250 482 263 c 1,10,11
 459 271 459 271 414.5 288.5 c 128,-1,12
 370 306 370 306 345.5 315 c 128,-1,13
 321 324 321 324 288.5 332 c 128,-1,14
 256 340 256 340 231 340 c 0,15,16
 146 340 146 340 106 246 c 1,17,-1
 64 274 l 1,18,19
 96 367 96 367 137.5 408.5 c 128,-1,20
 179 450 179 450 232 450 c 0,21,22
 271 450 271 450 329.5 431.5 c 128,-1,23
 388 413 388 413 442 390.5 c 128,-1,24
 496 368 496 368 573 349 c 128,-1,25
 650 330 650 330 722 330 c 1,26,-1
 682 220 l 1,27,-1
 642 220 l 2,28,29
 612 220 612 220 579 210 c 1,30,31
 590 153 590 153 628 126.5 c 128,-1,32
 666 100 666 100 739 100 c 2,33,-1
 780 100 l 1,34,-1
 780 -0 l 1,35,-1
 739 -0 l 2,36,37
 538 -0 538 -0 506 175 c 1,38,39
 487 163 487 163 446 133.5 c 128,-1,40
 405 104 405 104 374.5 85 c 128,-1,41
 344 66 344 66 298 44 c 128,-1,42
 252 22 252 22 195 11 c 128,-1,43
 138 0 138 0 72 0 c 2,44,-1
 -1 -0 l 2,45,46
 -20 1 -20 1 -35 16 c 128,-1,0
 -50 31 -50 31 -50 50 c 128,-1,1
EndSplineSet
Colour: ffda6b
EndChar

StartChar: _.heh.init
Encoding: 65547 -1 11
GlifName: _.heh.init
Width: 786
VWidth: 1304
GlyphClass: 1
UnlinkRmOvrlpSave: 1
Flags: MW
LayerCount: 2
Fore
SplineSet
-50 50 m 128,-1,1
 -50 69 -50 69 -35 84.5 c 128,-1,2
 -20 100 -20 100 -1 100 c 2,3,-1
 68 100 l 2,4,5
 132 100 132 100 185 110 c 128,-1,6
 238 120 238 120 281 139.5 c 128,-1,7
 324 159 324 159 352.5 176.5 c 128,-1,8
 381 194 381 194 420.5 222 c 128,-1,9
 460 250 460 250 482 263 c 1,10,11
 459 271 459 271 414.5 288.5 c 128,-1,12
 370 306 370 306 345.5 315 c 128,-1,13
 321 324 321 324 288.5 332 c 128,-1,14
 256 340 256 340 231 340 c 0,15,16
 146 340 146 340 106 246 c 1,17,-1
 64 274 l 1,18,19
 96 367 96 367 137.5 408.5 c 128,-1,20
 179 450 179 450 232 450 c 0,21,22
 271 450 271 450 329.5 431.5 c 128,-1,23
 388 413 388 413 442 390.5 c 128,-1,24
 496 368 496 368 573 349 c 128,-1,25
 650 330 650 330 722 330 c 1,26,-1
 682 220 l 1,27,-1
 642 220 l 2,28,29
 594 220 594 220 547 197 c 128,-1,30
 500 174 500 174 456.5 142 c 128,-1,31
 413 110 413 110 363 77.5 c 128,-1,32
 313 45 313 45 237.5 22.5 c 128,-1,33
 162 0 162 0 72 0 c 2,34,-1
 -1 -0 l 2,35,36
 -20 1 -20 1 -35 16 c 128,-1,0
 -50 31 -50 31 -50 50 c 128,-1,1
EndSplineSet
Colour: ffda6b
EndChar

StartChar: _.sin.isol
Encoding: 65548 -1 12
GlifName: _.sin.isol
Width: 1345
VWidth: 1304
GlyphClass: 1
UnlinkRmOvrlpSave: 1
Flags: MW
LayerCount: 2
Fore
SplineSet
64 -56 m 0,0,1
 64 65 64 65 133 237 c 1,2,-1
 192 214 l 1,3,4
 135 81 135 81 135 -19 c 0,5,6
 135 -108 135 -108 182.5 -154.5 c 128,-1,7
 230 -201 230 -201 316 -201 c 0,8,9
 395 -201 395 -201 484 -161.5 c 128,-1,10
 573 -122 573 -122 625 -65 c 0,11,12
 627 -59 627 -59 627 -43 c 0,13,14
 627 36 627 36 562 228 c 1,15,-1
 637 293 l 1,16,17
 642 280 642 280 663 218 c 2,18,-1
 668 202 l 2,19,20
 687 144 687 144 724 112 c 128,-1,21
 761 80 761 80 806 80 c 2,22,-1
 810 80 l 2,23,24
 883 80 883 80 903 140 c 2,25,-1
 948 285 l 1,26,-1
 1023 255 l 1,27,-1
 987 128 l 1,28,29
 1013 109 1013 109 1046 94.5 c 128,-1,30
 1079 80 1079 80 1102 80 c 0,31,32
 1114 80 1114 80 1147.5 90.5 c 128,-1,33
 1181 101 1181 101 1202 113 c 1,34,-1
 1202 125 l 2,35,36
 1202 178 1202 178 1158 310 c 1,37,-1
 1235 375 l 1,38,39
 1281 247 1281 247 1281 164 c 2,40,-1
 1281 159 l 2,41,42
 1281 71 1281 71 1214 22 c 0,43,44
 1190 4 1190 4 1157.5 -8 c 128,-1,45
 1125 -20 1125 -20 1101 -20 c 0,46,47
 1068 -20 1068 -20 1025 1 c 128,-1,48
 982 22 982 22 953 50 c 1,49,50
 929 17 929 17 889.5 -1.5 c 128,-1,51
 850 -20 850 -20 807 -20 c 0,52,53
 750 -20 750 -20 703 11 c 1,54,55
 703 -3 703 -3 702 -9 c 0,56,57
 687 -123 687 -123 571 -211.5 c 128,-1,58
 455 -300 455 -300 317 -301 c 0,59,60
 206 -301 206 -301 135 -242.5 c 128,-1,61
 64 -184 64 -184 64 -56 c 0,0,1
EndSplineSet
Colour: ffda6b
EndChar

StartChar: _.sin.fina
Encoding: 65549 -1 13
GlifName: _.sin.fina
Width: 1442
VWidth: 1304
GlyphClass: 1
UnlinkRmOvrlpSave: 1
Flags: MW
LayerCount: 2
Fore
SplineSet
1251 58 m 1,0,1
 1229 28 1229 28 1184 4 c 128,-1,2
 1139 -20 1139 -20 1101 -20 c 0,3,4
 1068 -20 1068 -20 1025 1 c 128,-1,5
 982 22 982 22 953 50 c 1,6,7
 929 17 929 17 889.5 -1.5 c 128,-1,8
 850 -20 850 -20 807 -20 c 0,9,10
 750 -20 750 -20 703 11 c 1,11,12
 703 -3 703 -3 702 -9 c 0,13,14
 687 -123 687 -123 571 -211.5 c 128,-1,15
 455 -300 455 -300 317 -301 c 0,16,17
 206 -301 206 -301 135 -242.5 c 128,-1,18
 64 -184 64 -184 64 -56 c 0,19,20
 64 65 64 65 133 237 c 1,21,-1
 192 214 l 1,22,23
 135 81 135 81 135 -19 c 0,24,25
 135 -108 135 -108 182.5 -154.5 c 128,-1,26
 230 -201 230 -201 316 -201 c 0,27,28
 395 -201 395 -201 484 -161.5 c 128,-1,29
 573 -122 573 -122 625 -65 c 0,30,31
 627 -59 627 -59 627 -43 c 0,32,33
 627 36 627 36 562 228 c 1,34,-1
 637 293 l 1,35,36
 642 280 642 280 663 218 c 2,37,-1
 668 202 l 2,38,39
 687 144 687 144 724 112 c 128,-1,40
 761 80 761 80 806 80 c 2,41,-1
 810 80 l 2,42,43
 883 80 883 80 903 140 c 2,44,-1
 948 285 l 1,45,-1
 1023 255 l 1,46,-1
 987 128 l 1,47,48
 1013 109 1013 109 1046 94.5 c 128,-1,49
 1079 80 1079 80 1102 80 c 0,50,51
 1117 80 1117 80 1158 93.5 c 128,-1,52
 1199 107 1199 107 1216 120 c 1,53,-1
 1180 305 l 1,54,-1
 1259 320 l 1,55,-1
 1276 229 l 2,56,57
 1288.78425903 162.339220776 1288.78425903 162.339220776 1297.10389086 148.235082457 c 0,58,59
 1310.52437461 125.483551723 1310.52437461 125.483551723 1352 111 c 1,60,61
 1400 100 1400 100 1442 100 c 1,62,-1
 1442 -0 l 1,63,64
 1348 -0 1348 -0 1299 27 c 0,65,66
 1274 37 1274 37 1251 58 c 1,0,1
EndSplineSet
Colour: ffda6b
EndChar

StartChar: _.sin.medi
Encoding: 65550 -1 14
GlifName: _.sin.medi
Width: 995
VWidth: 1304
GlyphClass: 1
UnlinkRmOvrlpSave: 1
Flags: MW
LayerCount: 2
Fore
SplineSet
804 58 m 1,0,1
 782 28 782 28 737 4 c 128,-1,2
 692 -20 692 -20 654 -20 c 0,3,4
 621 -20 621 -20 578 1 c 128,-1,5
 535 22 535 22 506 50 c 1,6,7
 454 -19 454 -19 360 -19 c 0,8,9
 261 -19 261 -19 205 61 c 1,10,11
 128 0 128 0 7 0 c 2,12,-1
 -1 -0 l 2,13,14
 -19 -0 -19 -0 -34.5 15 c 128,-1,15
 -50 30 -50 30 -50 49 c 0,16,17
 -50 69 -50 69 -35.5 84 c 128,-1,18
 -21 99 -21 99 -2 100 c 0,19,20
 81 100 81 100 134.5 123.5 c 128,-1,21
 188 147 188 147 207 210 c 2,22,-1
 234 300 l 1,23,-1
 311 271 l 1,24,-1
 282 176 l 2,25,26
 272 141 272 141 257 118 c 1,27,28
 302 79 302 79 361 79 c 0,29,30
 394 79 394 79 420 94.5 c 128,-1,31
 446 110 446 110 456 140 c 2,32,-1
 502 285 l 1,33,-1
 577 255 l 1,34,-1
 540 128 l 1,35,36
 566 109 566 109 599 94.5 c 128,-1,37
 632 80 632 80 655 80 c 0,38,39
 670 80 670 80 711 93.5 c 128,-1,40
 752 107 752 107 769 120 c 1,41,-1
 733 305 l 1,42,-1
 812 320 l 1,43,-1
 829 229 l 2,44,45
 841.784259029 162.339220776 841.784259029 162.339220776 850.103890855 148.235082457 c 0,46,47
 863.524374611 125.483551723 863.524374611 125.483551723 905 111 c 1,48,49
 953 100 953 100 995 100 c 1,50,-1
 995 -0 l 1,51,52
 901 -0 901 -0 852 27 c 0,53,54
 827 37 827 37 804 58 c 1,0,1
EndSplineSet
Colour: ffda6b
EndChar

StartChar: _.sin.init
Encoding: 65551 -1 15
GlifName: _.sin.init
Width: 898
VWidth: 1304
GlyphClass: 1
UnlinkRmOvrlpSave: 1
Flags: MW
LayerCount: 2
Fore
SplineSet
-50 49 m 0,0,1
 -50 69 -50 69 -35.5 84 c 128,-1,2
 -21 99 -21 99 -2 100 c 0,3,4
 81 100 81 100 134.5 123.5 c 128,-1,5
 188 147 188 147 207 210 c 2,6,-1
 234 300 l 1,7,-1
 311 271 l 1,8,-1
 282 176 l 2,9,10
 272 141 272 141 257 118 c 1,11,12
 302 79 302 79 361 79 c 0,13,14
 394 79 394 79 420 94.5 c 128,-1,15
 446 110 446 110 456 140 c 2,16,-1
 502 285 l 1,17,-1
 577 255 l 1,18,-1
 540 128 l 1,19,20
 566 109 566 109 599 94.5 c 128,-1,21
 632 80 632 80 655 80 c 0,22,23
 667 80 667 80 700.5 90.5 c 128,-1,24
 734 101 734 101 755 113 c 1,25,-1
 755 125 l 2,26,27
 755 178 755 178 711 310 c 1,28,-1
 788 375 l 1,29,30
 834 247 834 247 834 164 c 2,31,-1
 834 159 l 2,32,33
 834 71 834 71 767 22 c 0,34,35
 743 4 743 4 710.5 -8 c 128,-1,36
 678 -20 678 -20 654 -20 c 0,37,38
 621 -20 621 -20 578 1 c 128,-1,39
 535 22 535 22 506 50 c 1,40,41
 454 -19 454 -19 360 -19 c 0,42,43
 261 -19 261 -19 205 61 c 1,44,45
 128 0 128 0 7 0 c 2,46,-1
 -1 -0 l 2,47,48
 -19 -0 -19 -0 -34.5 15 c 128,-1,49
 -50 30 -50 30 -50 49 c 0,0,1
EndSplineSet
Colour: ffda6b
EndChar

StartChar: _.sad.isol
Encoding: 65552 -1 16
GlifName: _.sad.isol
Width: 1396
VWidth: 1304
GlyphClass: 1
UnlinkRmOvrlpSave: 1
Flags: MW
LayerCount: 2
Fore
SplineSet
833 -0 m 1,0,1
 760 4 760 4 703 32 c 1,2,3
 703 3 703 3 702 -9 c 0,4,5
 687 -123 687 -123 571 -211.5 c 128,-1,6
 455 -300 455 -300 317 -301 c 0,7,8
 206 -301 206 -301 135 -242.5 c 128,-1,9
 64 -184 64 -184 64 -56 c 0,10,11
 64 65 64 65 133 237 c 1,12,-1
 192 214 l 1,13,14
 135 81 135 81 135 -19 c 0,15,16
 135 -108 135 -108 182.5 -154.5 c 128,-1,17
 230 -201 230 -201 316 -201 c 0,18,19
 395 -201 395 -201 484 -161.5 c 128,-1,20
 573 -122 573 -122 625 -65 c 0,21,22
 627 -59 627 -59 627 -43 c 0,23,24
 627 36 627 36 562 228 c 1,25,-1
 637 293 l 1,26,27
 641 282 641 282 649.5 255.5 c 128,-1,28
 658 229 658 229 665 211 c 128,-1,29
 672 193 672 193 682 171.5 c 128,-1,30
 692 150 692 150 705.5 136.5 c 128,-1,31
 719 123 719 123 734 119 c 0,32,33
 738 118 738 118 747.5 115.5 c 128,-1,34
 757 113 757 113 762 112 c 1,35,36
 773 125 773 125 813.5 174 c 128,-1,37
 854 223 854 223 876 248.5 c 128,-1,38
 898 274 898 274 939.5 316.5 c 128,-1,39
 981 359 981 359 1011.5 381 c 128,-1,40
 1042 403 1042 403 1081.5 421 c 128,-1,41
 1121 439 1121 439 1155 439 c 0,42,43
 1237 439 1237 439 1284.5 378.5 c 128,-1,44
 1332 318 1332 318 1332 245 c 2,45,-1
 1332 244 l 2,46,47
 1332 123 1332 123 1249 61.5 c 128,-1,48
 1166 0 1166 0 1009 0 c 2,49,-1
 833 -0 l 1,0,1
822 100 m 1,50,-1
 1006 100 l 2,51,52
 1200 100 1200 100 1257 180 c 0,53,54
 1257 182 1257 182 1257.5 186.5 c 128,-1,55
 1258 191 1258 191 1258 193 c 0,56,57
 1258 249 1258 249 1223.5 294.5 c 128,-1,58
 1189 340 1189 340 1126 340 c 0,59,60
 1095 340 1095 340 1058 322 c 128,-1,61
 1021 304 1021 304 993.5 283 c 128,-1,62
 966 262 966 262 927.5 221 c 128,-1,63
 889 180 889 180 872.5 161 c 128,-1,64
 856 142 856 142 822 100 c 1,50,-1
EndSplineSet
Colour: ffda6b
EndChar

StartChar: _.sad.fina
Encoding: 65553 -1 17
GlifName: _.sad.fina
Width: 1465
VWidth: 1304
GlyphClass: 1
UnlinkRmOvrlpSave: 1
Flags: MW
LayerCount: 2
Fore
SplineSet
833 -0 m 1,0,1
 760 4 760 4 703 32 c 1,2,3
 703 3 703 3 702 -9 c 0,4,5
 687 -123 687 -123 571 -211.5 c 128,-1,6
 455 -300 455 -300 317 -301 c 0,7,8
 206 -301 206 -301 135 -242.5 c 128,-1,9
 64 -184 64 -184 64 -56 c 0,10,11
 64 65 64 65 133 237 c 1,12,-1
 192 214 l 1,13,14
 135 81 135 81 135 -19 c 0,15,16
 135 -108 135 -108 182.5 -154.5 c 128,-1,17
 230 -201 230 -201 316 -201 c 0,18,19
 395 -201 395 -201 484 -161.5 c 128,-1,20
 573 -122 573 -122 625 -65 c 0,21,22
 627 -59 627 -59 627 -43 c 0,23,24
 627 36 627 36 562 228 c 1,25,-1
 637 293 l 1,26,27
 641 282 641 282 649.5 255.5 c 128,-1,28
 658 229 658 229 665 211 c 128,-1,29
 672 193 672 193 682 171.5 c 128,-1,30
 692 150 692 150 705.5 136.5 c 128,-1,31
 719 123 719 123 734 119 c 0,32,33
 738 118 738 118 747.5 115.5 c 128,-1,34
 757 113 757 113 762 112 c 1,35,36
 773 125 773 125 813.5 174 c 128,-1,37
 854 223 854 223 876 248.5 c 128,-1,38
 898 274 898 274 939.5 316.5 c 128,-1,39
 981 359 981 359 1011.5 381 c 128,-1,40
 1042 403 1042 403 1081.5 421 c 128,-1,41
 1121 439 1121 439 1155 439 c 0,42,43
 1237 439 1237 439 1284.5 378.5 c 128,-1,44
 1332 318 1332 318 1332 245 c 2,45,-1
 1332 244 l 2,46,47
 1332 181 1332 181 1312 138 c 1,48,49
 1321 125 1321 125 1344 119 c 0,50,51
 1407 100 1407 100 1465 100 c 1,52,-1
 1465 -0 l 1,53,54
 1374 -0 1374 -0 1323 27 c 1,55,56
 1287 41 1287 41 1262 72 c 1,57,58
 1181 0 1181 0 1009 0 c 2,59,-1
 833 -0 l 1,0,1
822 100 m 1,60,-1
 1006 100 l 2,61,62
 1200 100 1200 100 1257 180 c 0,63,64
 1257 182 1257 182 1257.5 186.5 c 128,-1,65
 1258 191 1258 191 1258 193 c 0,66,67
 1258 249 1258 249 1223.5 294.5 c 128,-1,68
 1189 340 1189 340 1126 340 c 0,69,70
 1095 340 1095 340 1058 322 c 128,-1,71
 1021 304 1021 304 993.5 283 c 128,-1,72
 966 262 966 262 927.5 221 c 128,-1,73
 889 180 889 180 872.5 161 c 128,-1,74
 856 142 856 142 822 100 c 1,60,-1
EndSplineSet
Colour: ffda6b
EndChar

StartChar: _.sad.medi
Encoding: 65554 -1 18
GlifName: _.sad.medi
Width: 1023
VWidth: 1304
GlyphClass: 1
UnlinkRmOvrlpSave: 1
Flags: MW
LayerCount: 2
Fore
SplineSet
318 109 m 1,0,1
 329 122 329 122 369.5 171 c 128,-1,2
 410 220 410 220 432.5 246 c 128,-1,3
 455 272 455 272 496.5 314.5 c 128,-1,4
 538 357 538 357 569 380 c 128,-1,5
 600 403 600 403 639.5 421 c 128,-1,6
 679 439 679 439 714 439 c 0,7,8
 796 439 796 439 843.5 378.5 c 128,-1,9
 891 318 891 318 891 245 c 2,10,-1
 891 244 l 2,11,12
 891 183 891 183 870 138 c 1,13,14
 879 125 879 125 902 119 c 0,15,16
 965 100 965 100 1023 100 c 1,17,-1
 1023 -0 l 1,18,19
 932 -0 932 -0 881 27 c 1,20,21
 845 41 845 41 820 72 c 1,22,23
 739 0 739 0 567 0 c 2,24,-1
 389 -0 l 2,25,26
 316 0 316 0 275.5 19.5 c 128,-1,27
 235 39 235 39 212 80 c 1,28,29
 189 48 189 48 135 24 c 128,-1,30
 81 0 81 0 0 0 c 0,31,32
 -20 0 -20 0 -35 15 c 128,-1,33
 -50 30 -50 30 -50 50 c 0,34,35
 -49 70 -49 70 -34 85 c 128,-1,36
 -19 100 -19 100 0 100 c 0,37,38
 111 100 111 100 186 151 c 1,39,40
 182 164 182 164 157 285 c 1,41,-1
 226 305 l 1,42,43
 243 210 243 210 261.5 167 c 128,-1,44
 280 124 280 124 318 109 c 1,0,1
378 100 m 1,45,-1
 564 100 l 2,46,47
 758 100 758 100 815 180 c 0,48,49
 815 182 815 182 815.5 186.5 c 128,-1,50
 816 191 816 191 816 193 c 0,51,52
 816 249 816 249 781.5 294.5 c 128,-1,53
 747 340 747 340 684 340 c 0,54,55
 645 340 645 340 601.5 317 c 128,-1,56
 558 294 558 294 514 251.5 c 128,-1,57
 470 209 470 209 442 177.5 c 128,-1,58
 414 146 414 146 378 100 c 1,45,-1
EndSplineSet
Colour: ffda6b
EndChar

StartChar: _.sad.init
Encoding: 65555 -1 19
GlifName: _.sad.init
Width: 955
VWidth: 1304
GlyphClass: 1
UnlinkRmOvrlpSave: 1
Flags: MW
LayerCount: 2
Fore
SplineSet
318 109 m 1,0,1
 329 122 329 122 369.5 171 c 128,-1,2
 410 220 410 220 432.5 246 c 128,-1,3
 455 272 455 272 496.5 314.5 c 128,-1,4
 538 357 538 357 569 380 c 128,-1,5
 600 403 600 403 639.5 421 c 128,-1,6
 679 439 679 439 714 439 c 0,7,8
 796 439 796 439 843.5 378.5 c 128,-1,9
 891 318 891 318 891 245 c 2,10,-1
 891 244 l 2,11,12
 891 123 891 123 807.5 61.5 c 128,-1,13
 724 0 724 0 567 0 c 2,14,-1
 389 -0 l 2,15,16
 316 0 316 0 275.5 19.5 c 128,-1,17
 235 39 235 39 212 80 c 1,18,19
 189 48 189 48 135 24 c 128,-1,20
 81 0 81 0 0 0 c 0,21,22
 -20 0 -20 0 -35 15 c 128,-1,23
 -50 30 -50 30 -50 50 c 0,24,25
 -49 70 -49 70 -34 85 c 128,-1,26
 -19 100 -19 100 0 100 c 0,27,28
 111 100 111 100 186 151 c 1,29,30
 182 164 182 164 157 285 c 1,31,-1
 226 305 l 1,32,33
 243 210 243 210 261.5 167 c 128,-1,34
 280 124 280 124 318 109 c 1,0,1
378 100 m 1,35,-1
 564 100 l 2,36,37
 758 100 758 100 815 180 c 0,38,39
 815 182 815 182 815.5 186.5 c 128,-1,40
 816 191 816 191 816 193 c 0,41,42
 816 249 816 249 781.5 294.5 c 128,-1,43
 747 340 747 340 684 340 c 0,44,45
 645 340 645 340 601.5 317 c 128,-1,46
 558 294 558 294 514 251.5 c 128,-1,47
 470 209 470 209 442 177.5 c 128,-1,48
 414 146 414 146 378 100 c 1,35,-1
EndSplineSet
Colour: ffda6b
EndChar

StartChar: _.ta.isol
Encoding: 65556 -1 20
GlifName: _.ta.isol
Width: 891
VWidth: 1304
GlyphClass: 1
UnlinkRmOvrlpSave: 1
Flags: MW
LayerCount: 2
Fore
SplineSet
316 183 m 1,0,1
 360 237 360 237 393 273 c 128,-1,2
 426 309 426 309 472 352 c 128,-1,3
 518 395 518 395 563 417 c 128,-1,4
 608 439 608 439 650 439 c 0,5,6
 732 439 732 439 779.5 378.5 c 128,-1,7
 827 318 827 318 827 245 c 2,8,-1
 827 244 l 2,9,10
 827 123 827 123 743.5 61.5 c 128,-1,11
 660 0 660 0 503 0 c 2,12,-1
 146 -0 l 2,13,14
 132 -0 132 -0 98 34 c 128,-1,15
 64 68 64 68 64 87 c 0,16,17
 64 100 64 100 82 100 c 2,18,-1
 196 100 l 2,19,20
 244 100 244 100 244 139 c 2,21,-1
 244 141 l 1,22,-1
 228 700 l 2,23,24
 228 704 228 704 227.5 710 c 128,-1,25
 227 716 227 716 227 718 c 0,26,27
 227 744 227 744 240 758 c 128,-1,28
 253 772 253 772 303 800 c 1,29,30
 316 800 316 800 316 789 c 2,31,-1
 316 183 l 1,0,1
316 100 m 1,32,-1
 501 100 l 2,33,34
 695 100 695 100 752 180 c 0,35,36
 752 182 752 182 752.5 186.5 c 128,-1,37
 753 191 753 191 753 193 c 0,38,39
 753 249 753 249 718 294.5 c 128,-1,40
 683 340 683 340 620 340 c 0,41,42
 588 340 588 340 551.5 322.5 c 128,-1,43
 515 305 515 305 486 282.5 c 128,-1,44
 457 260 457 260 421 222 c 128,-1,45
 385 184 385 184 365 160.5 c 128,-1,46
 345 137 345 137 316 100 c 1,32,-1
EndSplineSet
Colour: ffda6b
EndChar

StartChar: _.ta.fina
Encoding: 65557 -1 21
GlifName: _.ta.fina
Width: 960
VWidth: 1304
GlyphClass: 1
UnlinkRmOvrlpSave: 1
Flags: MW
LayerCount: 2
Fore
SplineSet
316 183 m 1,0,1
 360 237 360 237 393 273 c 128,-1,2
 426 309 426 309 472 352 c 128,-1,3
 518 395 518 395 563 417 c 128,-1,4
 608 439 608 439 650 439 c 0,5,6
 732 439 732 439 779.5 378.5 c 128,-1,7
 827 318 827 318 827 245 c 2,8,-1
 827 244 l 2,9,10
 827 183 827 183 806 138 c 1,11,12
 815 125 815 125 838 119 c 0,13,14
 901 100 901 100 960 100 c 1,15,-1
 960 -0 l 1,16,17
 868 -0 868 -0 817 27 c 0,18,19
 783 41 783 41 757 72 c 1,20,21
 676 0 676 0 503 0 c 2,22,-1
 146 -0 l 2,23,24
 132 -0 132 -0 98 34 c 128,-1,25
 64 68 64 68 64 87 c 0,26,27
 64 100 64 100 82 100 c 2,28,-1
 196 100 l 2,29,30
 244 100 244 100 244 139 c 2,31,-1
 244 141 l 1,32,-1
 228 700 l 2,33,34
 228 704 228 704 227.5 710 c 128,-1,35
 227 716 227 716 227 718 c 0,36,37
 227 744 227 744 240 758 c 128,-1,38
 253 772 253 772 303 800 c 1,39,40
 316 800 316 800 316 789 c 2,41,-1
 316 183 l 1,0,1
316 100 m 1,42,-1
 501 100 l 2,43,44
 695 100 695 100 752 180 c 0,45,46
 752 182 752 182 752.5 186.5 c 128,-1,47
 753 191 753 191 753 193 c 0,48,49
 753 249 753 249 718 294.5 c 128,-1,50
 683 340 683 340 620 340 c 0,51,52
 588 340 588 340 551.5 322.5 c 128,-1,53
 515 305 515 305 486 282.5 c 128,-1,54
 457 260 457 260 421 222 c 128,-1,55
 385 184 385 184 365 160.5 c 128,-1,56
 345 137 345 137 316 100 c 1,42,-1
EndSplineSet
Colour: ffda6b
EndChar

StartChar: _.ta.medi
Encoding: 65558 -1 22
GlifName: _.ta.medi
Width: 803
VWidth: 1304
GlyphClass: 1
UnlinkRmOvrlpSave: 1
Flags: MW
LayerCount: 2
Fore
SplineSet
159 183 m 1,0,1
 203 237 203 237 236 273 c 128,-1,2
 269 309 269 309 315 352 c 128,-1,3
 361 395 361 395 406 417 c 128,-1,4
 451 439 451 439 493 439 c 0,5,6
 575 439 575 439 622.5 378.5 c 128,-1,7
 670 318 670 318 670 245 c 2,8,-1
 670 244 l 2,9,10
 670 183 670 183 649 138 c 1,11,12
 658 125 658 125 681 119 c 0,13,14
 744 100 744 100 803 100 c 1,15,-1
 803 -0 l 1,16,17
 711 -0 711 -0 660 27 c 0,18,19
 626 41 626 41 600 72 c 1,20,21
 519 0 519 0 346 0 c 2,22,-1
 0 -0 l 2,23,24
 -20 0 -20 0 -35 15 c 128,-1,25
 -50 30 -50 30 -50 50 c 0,26,27
 -50 69 -50 69 -35 84.5 c 128,-1,28
 -20 100 -20 100 -1 100 c 2,29,-1
 39 100 l 2,30,31
 87 100 87 100 87 139 c 2,32,-1
 87 141 l 1,33,-1
 71 700 l 2,34,35
 71 704 71 704 70.5 710 c 128,-1,36
 70 716 70 716 70 718 c 0,37,38
 70 744 70 744 83 758 c 128,-1,39
 96 772 96 772 146 800 c 1,40,41
 159 800 159 800 159 789 c 2,42,-1
 159 183 l 1,0,1
159 100 m 1,43,-1
 344 100 l 2,44,45
 538 100 538 100 595 180 c 0,46,47
 595 182 595 182 595.5 186.5 c 128,-1,48
 596 191 596 191 596 193 c 0,49,50
 596 249 596 249 561 294.5 c 128,-1,51
 526 340 526 340 463 340 c 0,52,53
 431 340 431 340 394.5 322.5 c 128,-1,54
 358 305 358 305 329 282.5 c 128,-1,55
 300 260 300 260 264 222 c 128,-1,56
 228 184 228 184 208 160.5 c 128,-1,57
 188 137 188 137 159 100 c 1,43,-1
EndSplineSet
Colour: ffda6b
EndChar

StartChar: _.ta.init
Encoding: 65559 -1 23
GlifName: _.ta.init
Width: 734
VWidth: 1304
GlyphClass: 1
UnlinkRmOvrlpSave: 1
Flags: MW
LayerCount: 2
Fore
SplineSet
159 183 m 1,0,1
 203 237 203 237 236 273 c 128,-1,2
 269 309 269 309 315 352 c 128,-1,3
 361 395 361 395 406 417 c 128,-1,4
 451 439 451 439 493 439 c 0,5,6
 575 439 575 439 622.5 378.5 c 128,-1,7
 670 318 670 318 670 245 c 2,8,-1
 670 244 l 2,9,10
 670 123 670 123 586.5 61.5 c 128,-1,11
 503 0 503 0 346 0 c 2,12,-1
 0 -0 l 2,13,14
 -20 0 -20 0 -35 15 c 128,-1,15
 -50 30 -50 30 -50 50 c 0,16,17
 -50 69 -50 69 -35 84.5 c 128,-1,18
 -20 100 -20 100 -1 100 c 2,19,-1
 39 100 l 2,20,21
 87 100 87 100 87 139 c 2,22,-1
 87 141 l 1,23,-1
 71 700 l 2,24,25
 71 704 71 704 70.5 710 c 128,-1,26
 70 716 70 716 70 718 c 0,27,28
 70 744 70 744 83 758 c 128,-1,29
 96 772 96 772 146 800 c 1,30,31
 159 800 159 800 159 789 c 2,32,-1
 159 183 l 1,0,1
159 100 m 1,33,-1
 344 100 l 2,34,35
 538 100 538 100 595 180 c 0,36,37
 595 182 595 182 595.5 186.5 c 128,-1,38
 596 191 596 191 596 193 c 0,39,40
 596 249 596 249 561 294.5 c 128,-1,41
 526 340 526 340 463 340 c 0,42,43
 431 340 431 340 394.5 322.5 c 128,-1,44
 358 305 358 305 329 282.5 c 128,-1,45
 300 260 300 260 264 222 c 128,-1,46
 228 184 228 184 208 160.5 c 128,-1,47
 188 137 188 137 159 100 c 1,33,-1
EndSplineSet
Colour: ffda6b
EndChar

StartChar: _.ein.isol
Encoding: 65560 -1 24
GlifName: _.ein.isol
Width: 696
VWidth: 1304
GlyphClass: 1
UnlinkRmOvrlpSave: 1
Flags: MW
LayerCount: 2
Fore
SplineSet
439 520 m 0,0,1
 369 520 369 520 328.5 498.5 c 128,-1,2
 288 477 288 477 288 451 c 0,3,4
 288 410 288 410 322.5 356.5 c 128,-1,5
 357 303 357 303 417 287 c 1,6,7
 451 294 451 294 486.5 299.5 c 128,-1,8
 522 305 522 305 567.5 311 c 128,-1,9
 613 317 613 317 632 320 c 1,10,-1
 611 240 l 1,11,12
 464 209 464 209 364 162 c 0,13,14
 271 121 271 121 208 57 c 128,-1,15
 145 -7 145 -7 130 -74 c 0,16,17
 126 -96 126 -96 126 -107 c 0,18,19
 126 -187 126 -187 209.5 -243.5 c 128,-1,20
 293 -300 293 -300 459 -300 c 0,21,22
 536 -300 536 -300 624 -287 c 1,23,-1
 603 -387 l 1,24,25
 512 -400 512 -400 430 -400 c 0,26,27
 249 -400 249 -400 156.5 -333 c 128,-1,28
 64 -266 64 -266 64 -138 c 0,29,30
 64 -107 64 -107 68 -79 c 0,31,32
 82 12 82 12 141 94 c 128,-1,33
 200 176 200 176 295 232 c 1,34,-1
 274 262 l 2,35,36
 216 342 216 342 216 417 c 0,37,38
 216 447 216 447 226 474 c 0,39,40
 252 549 252 549 304.5 585.5 c 128,-1,41
 357 622 357 622 422 622 c 0,42,43
 519 622 519 622 603 551 c 1,44,-1
 584 495 l 1,45,46
 506 520 506 520 439 520 c 0,0,1
EndSplineSet
Colour: ffda6b
EndChar

StartChar: _.ein.fina
Encoding: 65561 -1 25
GlifName: _.ein.fina
Width: 673
VWidth: 1304
GlyphClass: 1
UnlinkRmOvrlpSave: 1
Flags: MW
LayerCount: 2
Fore
SplineSet
64 -139 m 0,0,1
 64 -114 64 -114 69 -79 c 0,2,3
 82 7 82 7 134.5 85 c 128,-1,4
 187 163 187 163 272 218 c 1,5,6
 247 255 247 255 231 276 c 0,7,8
 203 309 203 309 169.5 330.5 c 128,-1,9
 136 352 136 352 110 352 c 0,10,11
 99 352 99 352 91 347 c 1,12,-1
 91 348 l 1,13,-1
 82 345 l 1,14,15
 109 437 109 437 111 447 c 1,16,17
 238 520 238 520 376 532 c 0,18,19
 388 533 388 533 409 533 c 0,20,21
 487 533 487 533 523.5 500.5 c 128,-1,22
 560 468 560 468 560 415 c 0,23,24
 560 399 560 399 559 391 c 0,25,26
 551 338 551 338 509 281 c 128,-1,27
 467 224 467 224 401 181 c 1,28,29
 479 103 479 103 580 100 c 2,30,-1
 673 100 l 1,31,-1
 673 -0 l 1,32,-1
 561 -0 l 2,33,34
 428 -0 428 -0 324 143 c 1,35,36
 246 100 246 100 194.5 42.5 c 128,-1,37
 143 -15 143 -15 130 -74 c 0,38,39
 127 -90.5 127 -90.5 127 -107 c 0,40,41
 127 -187 127 -187 210.5 -243.5 c 128,-1,42
 294 -300 294 -300 459 -300 c 0,43,44
 535 -300 535 -300 623 -287 c 1,45,-1
 602 -387 l 1,46,47
 511 -400 511 -400 429 -400 c 0,48,49
 249 -400 249 -400 156.5 -333.5 c 128,-1,50
 64 -267 64 -267 64 -139 c 0,0,1
204 394 m 1,51,52
 230 378 230 378 254.5 355 c 128,-1,53
 279 332 279 332 294.5 312.5 c 128,-1,54
 310 293 310 293 337 256 c 1,55,56
 382 277 382 277 436 318.5 c 128,-1,57
 490 360 490 360 493 391 c 1,58,59
 486 409 486 409 459 420 c 128,-1,60
 432 431 432 431 395 431 c 0,61,62
 311 431 311 431 204 394 c 1,51,52
EndSplineSet
Colour: ffda6b
EndChar

StartChar: _.ein.medi
Encoding: 65562 -1 26
GlifName: _.ein.medi
Width: 648
VWidth: 1304
GlyphClass: 1
UnlinkRmOvrlpSave: 1
Flags: MW
LayerCount: 2
Fore
SplineSet
-50 49 m 0,0,1
 -50 69 -50 69 -35 84.5 c 128,-1,2
 -20 100 -20 100 -1 100 c 0,3,4
 114 100 114 100 248 144 c 1,5,6
 240 153 240 153 226.5 170.5 c 128,-1,7
 213 188 213 188 206 196 c 0,8,9
 181 226 181 226 148.5 244.5 c 128,-1,10
 116 263 116 263 89 263 c 0,11,12
 77 263 77 263 72 261 c 2,13,-1
 57 253 l 1,14,15
 84 346 84 346 85 356 c 1,16,17
 212 429 212 429 351 441 c 0,18,19
 363 442 363 442 384 442 c 0,20,21
 463 442 463 442 499.5 410 c 128,-1,22
 536 378 536 378 536 326 c 0,23,24
 536 318 536 318 534 300 c 0,25,26
 520 211 520 211 412 129 c 1,27,28
 475 101 475 101 556 100 c 2,29,-1
 648 100 l 1,30,-1
 648 -0 l 1,31,-1
 547 -0 l 2,32,33
 544 0 544 0 537 -0.5 c 128,-1,34
 530 -1 530 -1 527 -1 c 0,35,36
 409 -1 409 -1 318 72 c 1,37,38
 172 0 172 0 -1 0 c 0,39,40
 -19 -0 -19 -0 -34.5 15 c 128,-1,41
 -50 30 -50 30 -50 49 c 0,0,1
188 306 m 1,42,43
 219 286 219 286 266 239 c 128,-1,44
 313 192 313 192 333 176 c 1,45,46
 468 238 468 238 468 300 c 1,47,48
 462 318 462 318 435 329 c 128,-1,49
 408 340 408 340 370 340 c 0,50,51
 294 340 294 340 188 306 c 1,42,43
EndSplineSet
Colour: ffda6b
EndChar

StartChar: _.ein.init
Encoding: 65563 -1 27
GlifName: _.ein.init
Width: 574
VWidth: 1304
GlyphClass: 1
UnlinkRmOvrlpSave: 1
Flags: MW
LayerCount: 2
Fore
SplineSet
317 369 m 128,-1,1
 247 369 247 369 206.5 347.5 c 128,-1,2
 166 326 166 326 166 300 c 0,3,4
 166 276 166 276 179 244 c 128,-1,5
 192 212 192 212 223 180.5 c 128,-1,6
 254 149 254 149 295 138 c 1,7,8
 491 177 491 177 510 180 c 1,9,-1
 489 100 l 1,10,11
 449 96 449 96 362.5 70.5 c 128,-1,12
 276 45 276 45 178.5 22.5 c 128,-1,13
 81 0 81 0 0 0 c 0,14,15
 -19 1 -19 1 -34.5 16 c 128,-1,16
 -50 31 -50 31 -50 50 c 128,-1,17
 -50 69 -50 69 -35 84.5 c 128,-1,18
 -20 100 -20 100 -1 100 c 0,19,20
 68 100 68 100 152 112 c 1,21,22
 94 192 94 192 94 266 c 0,23,24
 94 297 94 297 104 324 c 0,25,26
 130 399 130 399 182.5 435.5 c 128,-1,27
 235 472 235 472 300 472 c 0,28,29
 397 472 397 472 481 401 c 1,30,-1
 462 345 l 1,31,0
 387 369 387 369 317 369 c 128,-1,1
EndSplineSet
Colour: ffda6b
EndChar

StartChar: _.feh.isol
Encoding: 65564 -1 28
GlifName: _.feh.isol
Width: 930
VWidth: 1304
GlyphClass: 1
UnlinkRmOvrlpSave: 1
Flags: MW
LayerCount: 2
Fore
SplineSet
526 334 m 2,0,-1
 526 343 l 1,1,2
 534 456 534 456 575 518.5 c 128,-1,3
 616 581 616 581 686 581 c 0,4,5
 739 581 739 581 776.5 545 c 128,-1,6
 814 509 814 509 832.5 449.5 c 128,-1,7
 851 390 851 390 858.5 331 c 128,-1,8
 866 272 866 272 866 208 c 2,9,-1
 866 200 l 2,10,11
 864 157 864 157 860.5 138.5 c 128,-1,12
 857 120 857 120 846 108 c 0,13,14
 830 91 830 91 753 65 c 0,15,16
 684 43 684 43 642.5 31.5 c 128,-1,17
 601 20 601 20 523.5 9.5 c 128,-1,18
 446 -1 446 -1 358 -1 c 0,19,20
 64 -1 64 -1 64 217 c 0,21,22
 64 302 64 302 105 412 c 1,23,-1
 166 388 l 1,24,25
 135 311 135 311 135 256 c 0,26,27
 135 100 135 100 369 100 c 2,28,-1
 374 100 l 2,29,30
 581 100 581 100 785 170 c 1,31,32
 785 206 785 206 784 226 c 1,33,34
 732 200 732 200 669 200 c 0,35,36
 598 200 598 200 562 239.5 c 128,-1,37
 526 279 526 279 526 334 c 2,0,-1
672 482 m 0,38,39
 631 482 631 482 607 442.5 c 128,-1,40
 583 403 583 403 583 364 c 0,41,42
 583 300 583 300 669 300 c 2,43,-1
 673 300 l 2,44,45
 721 300 721 300 773 325 c 1,46,47
 743 482 743 482 672 482 c 0,38,39
EndSplineSet
Colour: ffda6b
EndChar

StartChar: _.feh.fina
Encoding: 65565 -1 29
GlifName: _.feh.fina
Width: 1034
VWidth: 1304
GlyphClass: 1
UnlinkRmOvrlpSave: 1
Flags: MW
LayerCount: 2
Fore
SplineSet
64 217 m 0,0,1
 64 302 64 302 105 412 c 1,2,-1
 166 388 l 1,3,4
 135 311 135 311 135 256 c 0,5,6
 135 100 135 100 369 100 c 2,7,-1
 374 100 l 2,8,9
 518 100 518 100 653 133 c 1,10,11
 613 176 613 176 600 220 c 0,12,13
 597 230 597 230 597 246 c 0,14,15
 597 289 597 289 617 342 c 128,-1,16
 637 395 637 395 678.5 437.5 c 128,-1,17
 720 480 720 480 768 480 c 0,18,19
 829 480 829 480 874 407 c 128,-1,20
 919 334 919 334 919 279 c 0,21,22
 919 193 919 193 845 122 c 1,23,24
 915 100 915 100 999 100 c 2,25,-1
 1034 100 l 1,26,-1
 1034 -0 l 1,27,-1
 1003 -0 l 2,28,29
 862 -0 862 -0 746 63 c 1,30,31
 650 31 650 31 566 15 c 128,-1,32
 482 -1 482 -1 358 -1 c 0,33,34
 64 -1 64 -1 64 217 c 0,0,1
658 253 m 1,35,36
 687 202 687 202 753 162 c 1,37,38
 801 186 801 186 830 211.5 c 128,-1,39
 859 237 859 237 859 255 c 0,40,41
 859 286 859 286 823.5 332.5 c 128,-1,42
 788 379 788 379 759 379 c 2,43,-1
 758 379 l 2,44,45
 729 379 729 379 694 334 c 128,-1,46
 659 289 659 289 658 253 c 1,35,36
EndSplineSet
Colour: ffda6b
EndChar

StartChar: _.feh.medi
Encoding: 65566 -1 30
GlifName: _.feh.medi
Width: 524
VWidth: 1304
GlyphClass: 1
UnlinkRmOvrlpSave: 1
Flags: MW
LayerCount: 2
Fore
SplineSet
-50 50 m 0,0,1
 -49 69 -49 69 -35 84 c 128,-1,2
 -21 99 -21 99 -2 100 c 0,3,4
 81 100 81 100 155 121 c 1,5,6
 104 169 104 169 90 220 c 0,7,8
 88 227 88 227 88 245 c 0,9,10
 88 288 88 288 107.5 341 c 128,-1,11
 127 394 127 394 168 437 c 128,-1,12
 209 480 209 480 258 480 c 0,13,14
 319 480 319 480 364 407 c 128,-1,15
 409 334 409 334 409 279 c 0,16,17
 409 192 409 192 338 121 c 1,18,19
 408 100 408 100 489 100 c 2,20,-1
 524 100 l 1,21,-1
 524 -0 l 1,22,-1
 493 -0 l 2,23,24
 357 -0 357 -0 248 56 c 1,25,26
 141 0 141 0 0 0 c 0,27,28
 -18 1 -18 1 -34 16 c 128,-1,29
 -50 31 -50 31 -50 50 c 0,0,1
148 253 m 1,30,31
 179 199 179 199 249 159 c 1,32,33
 294 183 294 183 321.5 210 c 128,-1,34
 349 237 349 237 349 255 c 0,35,36
 349 286 349 286 313.5 332.5 c 128,-1,37
 278 379 278 379 249 379 c 2,38,-1
 248 379 l 2,39,40
 220 379 220 379 184.5 334 c 128,-1,41
 149 289 149 289 148 253 c 1,30,31
EndSplineSet
Colour: ffda6b
EndChar

StartChar: _.feh.init
Encoding: 65567 -1 31
GlifName: _.feh.init
Width: 415
VWidth: 1304
GlyphClass: 1
UnlinkRmOvrlpSave: 1
Flags: MW
LayerCount: 2
Fore
SplineSet
12 343 m 1,0,1
 20 456 20 456 61 518.5 c 128,-1,2
 102 581 102 581 172 581 c 0,3,4
 224 581 224 581 261.5 546.5 c 128,-1,5
 299 512 299 512 317 453.5 c 128,-1,6
 335 395 335 395 343 337 c 128,-1,7
 351 279 351 279 351 215 c 0,8,9
 351 186 351 186 350 173 c 0,10,11
 347 87 347 87 279.5 43.5 c 128,-1,12
 212 0 212 0 110 0 c 2,13,-1
 0 -0 l 2,14,15
 -19 -0 -19 -0 -34.5 15.5 c 128,-1,16
 -50 31 -50 31 -50 50 c 0,17,18
 -49 70 -49 70 -34 85 c 128,-1,19
 -19 100 -19 100 0 100 c 2,20,-1
 110 100 l 2,21,22
 201 100 201 100 266 134 c 1,23,24
 270 166 270 166 270 190 c 0,25,26
 270 213 270 213 269 226 c 1,27,28
 217 200 217 200 154 200 c 0,29,30
 83 200 83 200 47 239.5 c 128,-1,31
 11 279 11 279 11 334 c 0,32,33
 11 335 11 335 11.5 337 c 128,-1,34
 12 339 12 339 12 340 c 2,35,-1
 12 343 l 1,0,1
157 482 m 0,36,37
 116 482 116 482 92 442.5 c 128,-1,38
 68 403 68 403 68 364 c 0,39,40
 68 300 68 300 154 300 c 2,41,-1
 158 300 l 2,42,43
 206 300 206 300 258 325 c 1,44,45
 228 482 228 482 157 482 c 0,36,37
EndSplineSet
Colour: ffda6b
EndChar

StartChar: _.qaf.isol
Encoding: 65568 -1 32
GlifName: _.qaf.isol
Width: 799
VWidth: 1304
GlyphClass: 1
UnlinkRmOvrlpSave: 1
Flags: MW
LayerCount: 2
Fore
SplineSet
396 131 m 2,0,-1
 396 144 l 1,1,2
 404 258 404 258 444 320 c 128,-1,3
 484 382 484 382 554 382 c 0,4,5
 604 382 604 382 640.5 350.5 c 128,-1,6
 677 319 677 319 696 265 c 128,-1,7
 715 211 715 211 723.5 156.5 c 128,-1,8
 732 102 732 102 734 39 c 0,9,10
 734 30 734 30 734.5 20 c 128,-1,11
 735 10 735 10 735 6 c 0,12,13
 735 4 735 4 734.5 -1 c 128,-1,14
 734 -6 734 -6 734 -10 c 0,15,16
 727 -96 727 -96 668 -164 c 128,-1,17
 609 -232 609 -232 524.5 -266 c 128,-1,18
 440 -300 440 -300 351 -301 c 0,19,20
 229 -301 229 -301 146.5 -232.5 c 128,-1,21
 64 -164 64 -164 64 -31 c 0,22,23
 64 86 64 86 132 236 c 1,24,-1
 193 213 l 1,25,26
 141 82 141 82 141 -5 c 0,27,28
 141 -103 141 -103 197 -150.5 c 128,-1,29
 253 -198 253 -198 350 -198 c 2,30,-1
 353 -198 l 2,31,32
 436 -198 436 -198 530 -159 c 128,-1,33
 624 -120 624 -120 647 -69 c 0,34,35
 654 -44 654 -44 654 -7 c 0,36,37
 654 13 654 13 653 26 c 1,38,39
 596 0 596 0 537 0 c 0,40,41
 467 0 467 0 431.5 38.5 c 128,-1,42
 396 77 396 77 396 131 c 2,0,-1
540 282 m 0,43,44
 499 282 499 282 475.5 242 c 128,-1,45
 452 202 452 202 452 163 c 0,46,47
 452 100 452 100 537 100 c 2,48,-1
 542 100 l 2,49,50
 589 100 589 100 642 125 c 1,51,52
 612 282 612 282 540 282 c 0,43,44
EndSplineSet
Colour: ffda6b
EndChar

StartChar: _.qaf.fina
Encoding: 65569 -1 33
GlifName: _.qaf.fina
Width: 866
VWidth: 1304
GlyphClass: 1
UnlinkRmOvrlpSave: 1
Flags: MW
LayerCount: 2
Fore
SplineSet
64 -31 m 0,0,1
 64 86 64 86 132 236 c 1,2,-1
 193 213 l 1,3,4
 141 82 141 82 141 -5 c 0,5,6
 141 -103 141 -103 197 -150.5 c 128,-1,7
 253 -198 253 -198 350 -198 c 2,8,-1
 353 -198 l 2,9,10
 436 -198 436 -198 530 -159 c 128,-1,11
 624 -120 624 -120 647 -69 c 0,12,13
 653 -47 653 -47 654 -16 c 2,14,-1
 654 -0 l 1,15,-1
 539 -0 l 2,16,17
 469 0 469 0 432.5 38.5 c 128,-1,18
 396 77 396 77 396 131 c 2,19,-1
 396 139 l 1,20,21
 405 254 405 254 444 318 c 128,-1,22
 483 382 483 382 554 382 c 0,23,24
 599 382 599 382 632.5 356.5 c 128,-1,25
 666 331 666 331 685.5 287.5 c 128,-1,26
 705 244 705 244 715.5 198.5 c 128,-1,27
 726 153 726 153 731 100 c 1,28,-1
 866 100 l 1,29,-1
 866 -0 l 1,30,-1
 734 -0 l 1,31,-1
 734 -10 l 1,32,33
 727 -96 727 -96 667.5 -164 c 128,-1,34
 608 -232 608 -232 524 -266 c 128,-1,35
 440 -300 440 -300 351 -301 c 0,36,37
 229 -301 229 -301 146.5 -232.5 c 128,-1,38
 64 -164 64 -164 64 -31 c 0,0,1
541 282 m 128,-1,40
 500 282 500 282 476 242 c 128,-1,41
 452 202 452 202 452 164 c 0,42,43
 452 100 452 100 535 100 c 2,44,-1
 646 100 l 1,45,46
 635 178 635 178 608.5 230 c 128,-1,39
 582 282 582 282 541 282 c 128,-1,40
EndSplineSet
Colour: ffda6b
EndChar

StartChar: _.kaf.isol.fa
Encoding: 65570 -1 34
GlifName: _.kaf.isol.fa
Width: 1041
VWidth: 1304
GlyphClass: 1
UnlinkRmOvrlpSave: 1
Flags: MW
LayerCount: 2
Fore
SplineSet
865 199 m 2,0,-1
 865 196 l 2,1,2
 864 127 864 127 846 108 c 0,3,4
 830 91 830 91 753 65 c 0,5,6
 684 43 684 43 642.5 31.5 c 128,-1,7
 601 20 601 20 523.5 9.5 c 128,-1,8
 446 -1 446 -1 358 -1 c 0,9,10
 64 -1 64 -1 64 217 c 0,11,12
 64 302 64 302 105 412 c 1,13,-1
 166 388 l 1,14,15
 135 311 135 311 135 256 c 0,16,17
 135 100 135 100 369 100 c 2,18,-1
 374 100 l 2,19,20
 575 100 575 100 803 176 c 1,21,22
 792 258 792 258 721.5 347 c 128,-1,23
 651 436 651 436 544 500 c 1,24,-1
 581 620 l 1,25,-1
 977 800 l 1,26,-1
 951 692 l 1,27,-1
 642 553 l 1,28,29
 745 474 745 474 805 379 c 128,-1,30
 865 284 865 284 865 199 c 2,0,-1
EndSplineSet
Colour: ffda6b
EndChar

StartChar: _.kaf.fina.fa
Encoding: 65572 -1 36
GlifName: _.kaf.fina.fa
Width: 1080
VWidth: 1304
GlyphClass: 1
UnlinkRmOvrlpSave: 1
Flags: MW
LayerCount: 2
Fore
SplineSet
64 217 m 0,0,1
 64 302 64 302 105 412 c 1,2,-1
 166 388 l 1,3,4
 135 311 135 311 135 256 c 0,5,6
 135 100 135 100 369 100 c 2,7,-1
 374 100 l 2,8,9
 575 100 575 100 803 176 c 1,10,11
 796 218 796 218 780 253 c 0,12,13
 706 402 706 402 544 500 c 1,14,-1
 581 620 l 1,15,-1
 977 800 l 1,16,-1
 951 692 l 1,17,-1
 642 553 l 1,18,19
 737 481 737 481 801 386 c 1,20,-1
 801 385 l 2,21,22
 804 380 804 380 810 370.5 c 128,-1,23
 816 361 816 361 819 356 c 0,24,25
 835 328 835 328 855 287.5 c 128,-1,26
 875 247 875 247 886 224.5 c 128,-1,27
 897 202 897 202 916.5 174.5 c 128,-1,28
 936 147 936 147 956 133 c 128,-1,29
 976 119 976 119 1007.5 109.5 c 128,-1,30
 1039 100 1039 100 1080 100 c 1,31,-1
 1080 -0 l 1,32,33
 989 0 989 0 938 28 c 128,-1,34
 887 56 887 56 851 114 c 1,35,36
 850 112 850 112 846 108 c 0,37,38
 830 91 830 91 753 65 c 0,39,40
 684 43 684 43 642.5 31.5 c 128,-1,41
 601 20 601 20 523.5 9.5 c 128,-1,42
 446 -1 446 -1 358 -1 c 0,43,44
 64 -1 64 -1 64 217 c 0,0,1
EndSplineSet
Colour: ffda6b
EndChar

StartChar: _.kaf.fina.ar
Encoding: 65573 -1 37
GlifName: _.kaf.fina.ar
Width: 1058
VWidth: 1304
GlyphClass: 1
UnlinkRmOvrlpSave: 1
Flags: MW
LayerCount: 2
Fore
SplineSet
64 217 m 0,0,1
 64 302 64 302 105 412 c 1,2,-1
 166 388 l 1,3,4
 135 311 135 311 135 256 c 0,5,6
 135 100 135 100 369 100 c 2,7,-1
 374 100 l 2,8,9
 584 100 584 100 792 172 c 1,10,-1
 776 700 l 1,11,-1
 776 718 l 2,12,13
 776 744 776 744 789 758 c 128,-1,14
 802 772 802 772 853 800 c 1,15,16
 865 800 865 800 865 789 c 2,17,-1
 865 244 l 1,18,19
 895 174 895 174 938.5 137.5 c 128,-1,20
 982 101 982 101 1058 100 c 1,21,-1
 1058 -0 l 1,22,23
 976 0 976 0 926 24 c 128,-1,24
 876 48 876 48 840 102 c 1,25,26
 823 89 823 89 753 65 c 0,27,28
 684 43 684 43 642.5 31.5 c 128,-1,29
 601 20 601 20 523.5 9.5 c 128,-1,30
 446 -1 446 -1 358 -1 c 0,31,32
 64 -1 64 -1 64 217 c 0,0,1
EndSplineSet
Colour: ffda6b
EndChar

StartChar: _.kaf.medi
Encoding: 65574 -1 38
GlifName: _.kaf.medi
Width: 536
VWidth: 1304
GlyphClass: 1
UnlinkRmOvrlpSave: 1
Flags: MW
LayerCount: 2
Fore
SplineSet
-50 50 m 128,-1,1
 -50 69 -50 69 -35 84.5 c 128,-1,2
 -20 100 -20 100 -1 100 c 2,3,-1
 89 100 l 2,4,5
 140 100 140 100 197.5 117.5 c 128,-1,6
 255 135 255 135 260 160 c 1,7,8
 258.5 205 258.5 205 236 253 c 0,9,10
 163 401 163 401 -1 500 c 1,11,-1
 36 620 l 1,12,-1
 433 800 l 1,13,-1
 407 692 l 1,14,-1
 98 553 l 1,15,16
 193 481 193 481 257 386 c 1,17,-1
 257 385 l 2,18,19
 260 380 260 380 266 370.5 c 128,-1,20
 272 361 272 361 275 356 c 0,21,22
 291 328 291 328 311 287.5 c 128,-1,23
 331 247 331 247 342 224.5 c 128,-1,24
 353 202 353 202 372.5 174.5 c 128,-1,25
 392 147 392 147 412 133 c 128,-1,26
 432 119 432 119 463.5 109.5 c 128,-1,27
 495 100 495 100 536 100 c 1,28,-1
 536 -0 l 1,29,30
 444 0 444 0 393 29 c 128,-1,31
 342 58 342 58 306 116 c 1,32,33
 259 0 259 0 80 0 c 2,34,-1
 -1 -0 l 2,35,36
 -20 1 -20 1 -35 16 c 128,-1,0
 -50 31 -50 31 -50 50 c 128,-1,1
EndSplineSet
Colour: ffda6b
EndChar

StartChar: _.kaf.init
Encoding: 65575 -1 39
GlifName: _.kaf.init
Width: 497
VWidth: 1304
GlyphClass: 1
UnlinkRmOvrlpSave: 1
Flags: MW
LayerCount: 2
Fore
SplineSet
-50 50 m 128,-1,1
 -50 69 -50 69 -35 84.5 c 128,-1,2
 -20 100 -20 100 -1 100 c 2,3,-1
 89 100 l 2,4,5
 140 100 140 100 197.5 117.5 c 128,-1,6
 255 135 255 135 260 160 c 1,7,8
 255 244 255 244 183 338.5 c 128,-1,9
 111 433 111 433 -1 500 c 1,10,-1
 36 620 l 1,11,-1
 433 800 l 1,12,-1
 407 692 l 1,13,-1
 98 553 l 1,14,15
 201 474 201 474 261 378.5 c 128,-1,16
 321 283 321 283 321 198 c 0,17,18
 320 96 320 96 254 48 c 128,-1,19
 188 0 188 0 80 0 c 2,20,-1
 -1 -0 l 2,21,22
 -20 1 -20 1 -35 16 c 128,-1,0
 -50 31 -50 31 -50 50 c 128,-1,1
EndSplineSet
Colour: ffda6b
EndChar

StartChar: _.kaf_hamze.isol.ar
Encoding: 65576 -1 40
GlifName: _.kaf_hamze.isol.ar
Width: 284
VWidth: 1304
GlyphClass: 1
UnlinkRmOvrlpSave: 1
Flags: MW
LayerCount: 2
Fore
SplineSet
180 87 m 0,0,1
 180 99 180 99 164 103.5 c 128,-1,2
 148 108 148 108 129 108.5 c 128,-1,3
 110 109 110 109 94 118.5 c 128,-1,4
 78 128 78 128 78 149 c 0,5,6
 78 185 78 185 109.5 219.5 c 128,-1,7
 141 254 141 254 186 254 c 0,8,9
 202 254 202 254 215 250 c 1,10,-1
 215 205 l 1,11,12
 201 207 201 207 195 207 c 0,13,14
 164 207 164 207 139.5 195 c 128,-1,15
 115 183 115 183 115 166 c 0,16,17
 115 154 115 154 131.5 148.5 c 128,-1,18
 148 143 148 143 167.5 141 c 128,-1,19
 187 139 187 139 203.5 130 c 128,-1,20
 220 121 220 121 220 103 c 0,21,22
 220 56 220 56 169 28 c 128,-1,23
 118 0 118 0 64 -6 c 1,24,-1
 64 42 l 1,25,26
 180 66 180 66 180 87 c 0,0,1
EndSplineSet
Colour: ffda6b
EndChar

StartChar: _.ghaf.isol
Encoding: 65577 -1 41
GlifName: _.ghaf.isol
Width: 1041
VWidth: 0
GlyphClass: 1
UnlinkRmOvrlpSave: 1
Flags: MW
LayerCount: 2
Fore
SplineSet
64 217 m 0,0,1
 64 302 64 302 105 412 c 1,2,-1
 166 388 l 1,3,4
 135 311 135 311 135 256 c 0,5,6
 135 100 135 100 369 100 c 2,7,-1
 374 100 l 2,8,9
 575 100 575 100 803 176 c 1,10,11
 792 258 792 258 721.5 347 c 128,-1,12
 651 436 651 436 544 500 c 1,13,-1
 581 620 l 1,14,-1
 977 800 l 1,15,-1
 951 692 l 1,16,-1
 642 553 l 1,17,18
 745 474 745 474 805 379 c 128,-1,19
 865 284 865 284 865 199 c 2,20,-1
 865 182 l 2,21,22
 862 124 862 124 846 108 c 0,23,24
 830 91 830 91 753 65 c 0,25,26
 684 43 684 43 642.5 31.5 c 128,-1,27
 601 20 601 20 523.5 9.5 c 128,-1,28
 446 -1 446 -1 358 -1 c 0,29,30
 64 -1 64 -1 64 217 c 0,0,1
611 698 m 1,31,-1
 626 758 l 1,32,-1
 906 884 l 1,33,-1
 893 826 l 1,34,-1
 611 698 l 1,31,-1
EndSplineSet
Colour: ffda6b
EndChar

StartChar: _.ghaf.fina
Encoding: 65578 -1 42
GlifName: _.ghaf.fina
Width: 1080
VWidth: 0
GlyphClass: 1
Flags: MW
LayerCount: 2
Fore
SplineSet
64 217 m 0,0,1
 64 302 64 302 105 412 c 1,2,-1
 166 388 l 1,3,4
 135 311 135 311 135 256 c 0,5,6
 135 100 135 100 369 100 c 2,7,-1
 374 100 l 2,8,9
 575 100 575 100 803 176 c 1,10,11
 796 218 796 218 780 253 c 0,12,13
 706 402 706 402 544 500 c 1,14,-1
 581 620 l 1,15,-1
 977 800 l 1,16,-1
 951 692 l 1,17,-1
 642 553 l 1,18,19
 737 481 737 481 801 386 c 1,20,-1
 801 385 l 2,21,22
 804 380 804 380 810 370.5 c 128,-1,23
 816 361 816 361 819 356 c 0,24,25
 835 328 835 328 855 287.5 c 128,-1,26
 875 247 875 247 886 224.5 c 128,-1,27
 897 202 897 202 916.5 174.5 c 128,-1,28
 936 147 936 147 956 133 c 128,-1,29
 976 119 976 119 1007.5 109.5 c 128,-1,30
 1039 100 1039 100 1080 100 c 1,31,-1
 1080 -0 l 1,32,33
 989 0 989 0 938 28 c 128,-1,34
 887 56 887 56 851 114 c 1,35,36
 850 112 850 112 846 108 c 0,37,38
 830 91 830 91 753 65 c 0,39,40
 684 43 684 43 642.5 31.5 c 128,-1,41
 601 20 601 20 523.5 9.5 c 128,-1,42
 446 -1 446 -1 358 -1 c 0,43,44
 64 -1 64 -1 64 217 c 0,0,1
611 698 m 1,45,-1
 626 758 l 1,46,-1
 906 884 l 1,47,-1
 893 826 l 1,48,-1
 611 698 l 1,45,-1
EndSplineSet
Validated: 1
Colour: ffda6b
EndChar

StartChar: _.lam.isol
Encoding: 65580 -1 44
GlifName: _.lam.isol
Width: 766
VWidth: 1304
GlyphClass: 1
UnlinkRmOvrlpSave: 1
Flags: MW
LayerCount: 2
Fore
SplineSet
317 -201 m 128,-1,1
 403 -201 403 -201 494.5 -157 c 128,-1,2
 586 -113 586 -113 638 -56 c 1,3,-1
 613 700 l 1,4,-1
 613 718 l 2,5,6
 613 744 613 744 626 758 c 128,-1,7
 639 772 639 772 690 800 c 1,8,9
 702 800 702 800 702 789 c 2,10,-1
 702 -15 l 2,11,12
 701 -90 701 -90 643 -157 c 128,-1,13
 585 -224 585 -224 496.5 -262.5 c 128,-1,14
 408 -301 408 -301 318 -301 c 0,15,16
 266 -301 266 -301 222 -288 c 128,-1,17
 178 -275 178 -275 141.5 -247.5 c 128,-1,18
 105 -220 105 -220 84.5 -171.5 c 128,-1,19
 64 -123 64 -123 64 -56 c 0,20,21
 64 65 64 65 133 237 c 1,22,-1
 192 214 l 1,23,24
 135 81 135 81 135 -19 c 0,25,26
 135 -108 135 -108 183 -154.5 c 128,-1,0
 231 -201 231 -201 317 -201 c 128,-1,1
EndSplineSet
Colour: ffda6b
EndChar

StartChar: _.lam.fina
Encoding: 65581 -1 45
GlifName: _.lam.fina
Width: 867
VWidth: 1304
GlyphClass: 1
UnlinkRmOvrlpSave: 1
Flags: MW
LayerCount: 2
Fore
SplineSet
867 -0 m 1,0,1
 764 -0 764 -0 702 38 c 1,2,-1
 702 -15 l 2,3,4
 701 -90 701 -90 643 -157 c 128,-1,5
 585 -224 585 -224 496.5 -262.5 c 128,-1,6
 408 -301 408 -301 318 -301 c 0,7,8
 266 -301 266 -301 222 -288 c 128,-1,9
 178 -275 178 -275 141.5 -247.5 c 128,-1,10
 105 -220 105 -220 84.5 -171.5 c 128,-1,11
 64 -123 64 -123 64 -56 c 0,12,13
 64 65 64 65 133 237 c 1,14,-1
 192 214 l 1,15,16
 135 81 135 81 135 -19 c 0,17,18
 135 -108 135 -108 183 -154.5 c 128,-1,19
 231 -201 231 -201 317 -201 c 128,-1,20
 403 -201 403 -201 494.5 -157 c 128,-1,21
 586 -113 586 -113 638 -56 c 1,22,-1
 613 700 l 1,23,-1
 613 718 l 2,24,25
 613 744 613 744 626 758 c 128,-1,26
 639 772 639 772 690 800 c 1,27,28
 702 800 702 800 702 789 c 2,29,-1
 702 154 l 1,30,31
 721 125 721 125 745 119 c 0,32,33
 806 100 806 100 867 100 c 1,34,-1
 867 -0 l 1,0,1
EndSplineSet
Colour: ffda6b
EndChar

StartChar: _.lam.medi
Encoding: 65582 -1 46
GlifName: _.lam.medi
Width: 419
VWidth: 1304
GlyphClass: 1
UnlinkRmOvrlpSave: 1
Flags: MW
LayerCount: 2
Fore
SplineSet
218 68 m 1,0,1
 185 31 185 31 142.5 15.5 c 128,-1,2
 100 0 100 0 25 0 c 2,3,-1
 -1 -0 l 2,4,5
 -19 -0 -19 -0 -34.5 15 c 128,-1,6
 -50 30 -50 30 -50 49 c 0,7,8
 -50 69 -50 69 -35 84.5 c 128,-1,9
 -20 100 -20 100 -1 100 c 2,10,-1
 24 100 l 2,11,12
 124 100 124 100 193 140 c 1,13,-1
 177 700 l 2,14,15
 177 704 177 704 176.5 710 c 128,-1,16
 176 716 176 716 176 718 c 0,17,18
 176 744 176 744 189 758 c 128,-1,19
 202 772 202 772 253 800 c 1,20,21
 265 800 265 800 265 789 c 2,22,-1
 265 166 l 2,23,24
 265 126 265 126 297 119 c 0,25,26
 358 100 358 100 419 100 c 1,27,-1
 419 -0 l 1,28,29
 326 -0 326 -0 275 27 c 0,30,31
 239 44 239 44 218 68 c 1,0,1
EndSplineSet
Colour: ffda6b
EndChar

StartChar: _.lam.init
Encoding: 65583 -1 47
GlifName: _.lam.init
Width: 304
VWidth: 1304
GlyphClass: 1
UnlinkRmOvrlpSave: 1
Flags: MW
LayerCount: 2
Fore
SplineSet
-50 50 m 0,0,1
 -49 70 -49 70 -34 85 c 128,-1,2
 -19 100 -19 100 0 100 c 0,3,4
 101 100 101 100 168 140 c 1,5,-1
 120 700 l 1,6,-1
 120 709 l 2,7,8
 120 742 120 742 131 755.5 c 128,-1,9
 142 769 142 769 196 800 c 1,10,11
 209 800 209 800 209 789 c 2,12,-1
 239 180 l 2,13,14
 239 178 239 178 239.5 175 c 128,-1,15
 240 172 240 172 240 170 c 0,16,17
 240 83 240 83 148 29 c 0,18,19
 95 0 95 0 0 0 c 0,20,21
 -20 1 -20 1 -35 15.5 c 128,-1,22
 -50 30 -50 30 -50 50 c 0,0,1
EndSplineSet
Colour: ffda6b
EndChar

StartChar: _.mim.isol
Encoding: 65584 -1 48
GlifName: _.mim.isol
Width: 635
VWidth: 1304
GlyphClass: 1
UnlinkRmOvrlpSave: 1
Flags: MW
LayerCount: 2
Fore
SplineSet
571 253 m 0,0,1
 571 190 571 190 541.5 145.5 c 128,-1,2
 512 101 512 101 456 100 c 0,3,4
 385 100 385 100 283 156 c 1,5,6
 229 176 229 176 192 176 c 0,7,8
 145 176 145 176 130 151 c 1,9,-1
 183 -302 l 2,10,11
 183 -309 183 -309 183.5 -319.5 c 128,-1,12
 184 -330 184 -330 184 -333 c 0,13,14
 184 -352 184 -352 172 -365 c 128,-1,15
 160 -378 160 -378 118 -402 c 1,16,17
 105 -402 105 -402 105 -390 c 2,18,-1
 65 107 l 2,19,20
 65 110 65 110 64.5 116 c 128,-1,21
 64 122 64 122 64 125 c 0,22,23
 64 194 64 194 102 240.5 c 128,-1,24
 140 287 140 287 207 287 c 0,25,26
 229 287 229 287 246 283 c 1,27,-1
 252 295 l 2,28,29
 259 308 259 308 281 350.5 c 128,-1,30
 303 393 303 393 320 422 c 0,31,32
 354 483 354 483 407 483 c 0,33,34
 467 483 467 483 519 411.5 c 128,-1,35
 571 340 571 340 571 253 c 0,0,1
301 266 m 1,36,37
 404 206 404 206 470 206 c 0,38,39
 489.5 206 489.5 206 509 212 c 1,40,41
 496 275 496 275 455.5 321 c 128,-1,42
 415 367 415 367 379 367 c 0,43,44
 359 367 359 367 347 348 c 0,45,46
 346 346 346 346 301 266 c 1,36,37
EndSplineSet
Colour: ffda6b
EndChar

StartChar: _.mim.fina
Encoding: 65585 -1 49
GlifName: _.mim.fina
Width: 675
VWidth: 1304
GlyphClass: 1
UnlinkRmOvrlpSave: 1
Flags: MW
LayerCount: 2
Fore
SplineSet
64 108 m 1,0,1
 64 219 64 219 151.5 268.5 c 128,-1,2
 239 318 239 318 411 328 c 1,3,-1
 481 390 l 1,4,-1
 518 172 l 2,5,6
 525 148 525 148 539 135 c 128,-1,7
 553 122 553 122 585 111 c 0,8,9
 633 100 633 100 675 100 c 1,10,-1
 675 -0 l 1,11,12
 582 -0 582 -0 531 27 c 0,13,14
 524 30 524 30 522 31 c 1,15,16
 502 -66 502 -66 388 -78 c 1,17,-1
 381 -78 l 2,18,19
 315 -78 315 -78 270 -27 c 128,-1,20
 225 24 225 24 225 107 c 0,21,22
 225 154 225 154 243 210 c 1,23,24
 168 189 168 189 132 155 c 1,25,-1
 182 -302 l 2,26,27
 182 -309 182 -309 183 -319.5 c 128,-1,28
 184 -330 184 -330 184 -333 c 0,29,30
 184 -352 184 -352 171.5 -365 c 128,-1,31
 159 -378 159 -378 117 -402 c 1,32,33
 105 -402 105 -402 105 -390 c 2,34,-1
 64 108 l 1,0,1
294 166 m 0,35,36
 294 109 294 109 322.5 69 c 128,-1,37
 351 29 351 29 403 29 c 0,38,39
 428 29 428 29 457 39 c 1,40,41
 457 64 457 64 449 112 c 2,42,-1
 428 230 l 1,43,44
 353 230 353 230 302 223 c 1,45,46
 294 194 294 194 294 166 c 0,35,36
EndSplineSet
Colour: ffda6b
EndChar

StartChar: _.mim.medi
Encoding: 65586 -1 50
GlifName: _.mim.medi
Width: 657
VWidth: 1304
GlyphClass: 1
UnlinkRmOvrlpSave: 1
Flags: MW
LayerCount: 2
Fore
SplineSet
-50 50 m 128,-1,1
 -50 69 -50 69 -34.5 84.5 c 128,-1,2
 -19 100 -19 100 0 100 c 0,3,4
 46 100 46 100 79 111 c 128,-1,5
 112 122 112 122 134 145 c 128,-1,6
 156 168 156 168 169 189 c 128,-1,7
 182 210 182 210 200 245 c 128,-1,8
 218 280 218 280 231 300 c 0,9,10
 260 343 260 343 289 343 c 0,11,12
 311 343 311 343 338.5 318 c 128,-1,13
 366 293 366 293 396 257.5 c 128,-1,14
 426 222 426 222 461.5 186 c 128,-1,15
 497 150 497 150 548 125 c 128,-1,16
 599 100 599 100 657 100 c 1,17,-1
 657 -0 l 1,18,19
 560 -0 560 -0 477 61 c 1,20,21
 407 -41 407 -41 336 -41 c 0,22,23
 299 -41 299 -41 259.5 -17.5 c 128,-1,24
 220 6 220 6 157 56 c 1,25,26
 106 0 106 0 0 0 c 0,27,28
 -19 -0 -19 -0 -34.5 15.5 c 128,-1,0
 -50 31 -50 31 -50 50 c 128,-1,1
206 139 m 1,29,30
 304 60 304 60 349 60 c 0,31,32
 387 60 387 60 426 103 c 1,33,34
 402 125 402 125 368 162.5 c 128,-1,35
 334 200 334 200 314 218 c 128,-1,36
 294 236 294 236 279 236 c 0,37,38
 268 236 268 236 258 225 c 0,39,40
 232 194 232 194 206 139 c 1,29,30
EndSplineSet
Colour: ffda6b
EndChar

StartChar: _.mim.init
Encoding: 65587 -1 51
GlifName: _.mim.init
Width: 563
VWidth: 1304
GlyphClass: 1
UnlinkRmOvrlpSave: 1
Flags: MW
LayerCount: 2
Fore
SplineSet
499 148 m 0,0,1
 499 85 499 85 470 42.5 c 128,-1,2
 441 0 441 0 385 0 c 2,3,-1
 382 -0 l 2,4,5
 334 0 334 0 275 22.5 c 128,-1,6
 216 45 216 45 179 71 c 1,7,8
 153 35 153 35 112.5 17.5 c 128,-1,9
 72 0 72 0 0 0 c 0,10,11
 -19 -0 -19 -0 -34.5 15.5 c 128,-1,12
 -50 31 -50 31 -50 50 c 128,-1,13
 -50 69 -50 69 -34.5 84.5 c 128,-1,14
 -19 100 -19 100 0 100 c 0,15,16
 35 100 35 100 60.5 103 c 128,-1,17
 86 106 86 106 106 116 c 128,-1,18
 126 126 126 126 138.5 135 c 128,-1,19
 151 144 151 144 165 166 c 128,-1,20
 179 188 179 188 188 204.5 c 128,-1,21
 197 221 197 221 215 256 c 128,-1,22
 233 291 233 291 248 317 c 0,23,24
 282 379 282 379 335 379 c 0,25,26
 395 379 395 379 447 307 c 128,-1,27
 499 235 499 235 499 148 c 0,0,1
229 161 m 1,28,29
 309 101 309 101 388 101 c 0,30,31
 416 101 416 101 438 108 c 1,32,33
 424 171 424 171 383.5 217 c 128,-1,34
 343 263 343 263 307 263 c 0,35,36
 287 263 287 263 275 245 c 0,37,38
 265 227 265 227 249.5 198 c 128,-1,39
 234 169 234 169 229 161 c 1,28,29
EndSplineSet
Colour: ffda6b
EndChar

StartChar: _.nun.isol
Encoding: 65588 -1 52
GlifName: _.nun.isol
Width: 768
VWidth: 1305
GlyphClass: 1
UnlinkRmOvrlpSave: 1
Flags: MW
LayerCount: 2
Fore
SplineSet
64 -56 m 0,0,1
 64 65 64 65 133 237 c 1,2,-1
 192 214 l 1,3,4
 135 81 135 81 135 -19 c 0,5,6
 135 -108 135 -108 183 -154.5 c 128,-1,7
 231 -201 231 -201 317 -201 c 0,8,9
 395 -201 395 -201 484 -161.5 c 128,-1,10
 573 -122 573 -122 626 -65 c 1,11,12
 628 -53 628 -53 628 -45 c 0,13,14
 628 33 628 33 562 228 c 1,15,-1
 638 293 l 1,16,17
 704 109 704 109 704 16 c 0,18,19
 704 7 704 7 702 -9 c 0,20,21
 687 -123 687 -123 571 -211.5 c 128,-1,22
 455 -300 455 -300 318 -301 c 0,23,24
 266 -301 266 -301 222 -288 c 128,-1,25
 178 -275 178 -275 141.5 -247.5 c 128,-1,26
 105 -220 105 -220 84.5 -171.5 c 128,-1,27
 64 -123 64 -123 64 -56 c 0,0,1
EndSplineSet
Colour: ffda6b
EndChar

StartChar: _.nun.fina
Encoding: 65589 -1 53
GlifName: _.nun.fina
Width: 857
VWidth: 1413
GlyphClass: 1
UnlinkRmOvrlpSave: 1
Flags: MW
LayerCount: 2
Fore
SplineSet
64 -56 m 0,0,1
 64 65 64 65 133 237 c 1,2,-1
 192 214 l 1,3,4
 135 81 135 81 135 -19 c 0,5,6
 135 -108 135 -108 183 -154.5 c 128,-1,7
 231 -201 231 -201 317 -201 c 0,8,9
 395 -201 395 -201 484 -161.5 c 128,-1,10
 573 -122 573 -122 626 -65 c 1,11,12
 628 -53 628 -53 628 -45 c 0,13,14
 628 33 628 33 562 228 c 1,15,-1
 638 293 l 1,16,17
 641 285 641 285 653.5 246.5 c 128,-1,18
 666 208 666 208 673.5 188.5 c 128,-1,19
 681 169 681 169 698 146.5 c 128,-1,20
 715 124 715 124 734 119 c 0,21,22
 797 100 797 100 857 100 c 1,23,-1
 857 -0 l 1,24,25
 764 -0 764 -0 713 27 c 0,26,27
 711 28 711 28 708 30 c 128,-1,28
 705 32 705 32 703 32 c 1,29,30
 703 30 703 30 703.5 25.5 c 128,-1,31
 704 21 704 21 704 19 c 0,32,33
 704 9 704 9 702 -9 c 0,34,35
 687 -123 687 -123 571 -211.5 c 128,-1,36
 455 -300 455 -300 318 -301 c 0,37,38
 266 -301 266 -301 222 -288 c 128,-1,39
 178 -275 178 -275 141.5 -247.5 c 128,-1,40
 105 -220 105 -220 84.5 -171.5 c 128,-1,41
 64 -123 64 -123 64 -56 c 0,0,1
EndSplineSet
Colour: ffda6b
EndChar

StartChar: _.vav.isol
Encoding: 65590 -1 54
GlifName: _.vav.isol
Width: 507
VWidth: 1304
GlyphClass: 1
UnlinkRmOvrlpSave: 1
Flags: MW
LayerCount: 2
Fore
SplineSet
270 381 m 0,0,1
 325 381 325 381 366 327 c 128,-1,2
 407 273 407 273 425 200.5 c 128,-1,3
 443 128 443 128 443 55 c 0,4,5
 443 -65 443 -65 347.5 -175 c 128,-1,6
 252 -285 252 -285 160 -301 c 0,7,8
 140 -301 140 -301 102 -279.5 c 128,-1,9
 64 -258 64 -258 64 -241 c 0,10,11
 64 -237 64 -237 69 -232 c 0,12,13
 145 -204 145 -204 203.5 -170 c 128,-1,14
 262 -136 262 -136 294.5 -102 c 128,-1,15
 327 -68 327 -68 344 -38.5 c 128,-1,16
 361 -9 361 -9 364 18 c 2,17,-1
 364 21 l 1,18,19
 318 0 318 0 262 0 c 0,20,21
 191 0 191 0 155.5 35 c 128,-1,22
 120 70 120 70 120 122 c 0,23,24
 120 172 120 172 134.5 228.5 c 128,-1,25
 149 285 149 285 185 333 c 128,-1,26
 221 381 221 381 270 381 c 0,0,1
176 155 m 0,27,28
 176 130 176 130 191.5 117 c 128,-1,29
 207 104 207 104 222 102 c 128,-1,30
 237 100 237 100 262 100 c 2,31,-1
 267 100 l 2,32,33
 313 100 313 100 357 122 c 1,34,35
 345 190 345 190 317 235 c 128,-1,36
 289 280 289 280 254 280 c 0,37,38
 209 280 209 280 178 178 c 0,39,40
 176 169 176 169 176 155 c 0,27,28
EndSplineSet
Colour: ffda6b
EndChar

StartChar: _.vav.fina
Encoding: 65591 -1 55
GlifName: _.vav.fina
Width: 593
VWidth: 1304
GlyphClass: 1
UnlinkRmOvrlpSave: 1
Flags: MW
LayerCount: 2
Fore
SplineSet
119 122 m 0,0,1
 119 157 119 157 128 200 c 128,-1,2
 137 243 137 243 154.5 284.5 c 128,-1,3
 172 326 172 326 202.5 353.5 c 128,-1,4
 233 381 233 381 270 381 c 0,5,6
 320 381 320 381 358.5 335.5 c 128,-1,7
 397 290 397 290 415.5 228.5 c 128,-1,8
 434 167 434 167 439 100 c 1,9,-1
 593 100 l 1,10,-1
 593 -0 l 1,11,-1
 437 -0 l 1,12,13
 415 -107 415 -107 327 -197 c 128,-1,14
 239 -287 239 -287 160 -301 c 0,15,16
 140 -301 140 -301 102 -279.5 c 128,-1,17
 64 -258 64 -258 64 -241 c 0,18,19
 64 -237 64 -237 69 -232 c 0,20,21
 203 -184 203 -184 274 -121 c 128,-1,22
 345 -58 345 -58 361 0 c 1,23,-1
 262 -0 l 2,24,25
 191 0 191 0 155 35 c 128,-1,26
 119 70 119 70 119 122 c 0,0,1
176 155 m 0,27,28
 176 130 176 130 191.5 117 c 128,-1,29
 207 104 207 104 222 102 c 128,-1,30
 237 100 237 100 262 100 c 2,31,-1
 361 100 l 1,32,33
 352 175 352 175 322.5 227.5 c 128,-1,34
 293 280 293 280 254 280 c 0,35,36
 209 280 209 280 178 178 c 0,37,38
 176 169 176 169 176 155 c 0,27,28
EndSplineSet
Colour: ffda6b
EndChar

StartChar: _.dal.isol
Encoding: 65592 -1 56
GlifName: _.dal.isol
Width: 508
VWidth: 1304
GlyphClass: 1
UnlinkRmOvrlpSave: 1
Flags: MW
LayerCount: 2
Fore
SplineSet
444 186 m 0,0,1
 444 91 444 91 384 45.5 c 128,-1,2
 324 0 324 0 225 0 c 0,3,4
 169 0 169 0 135 10 c 128,-1,5
 101 20 101 20 86 43 c 128,-1,6
 71 66 71 66 67.5 87.5 c 128,-1,7
 64 109 64 109 64 148 c 2,8,-1
 64 171 l 2,9,10
 64 191 64 191 87 191 c 0,11,12
 97 191 97 191 104.5 186 c 128,-1,13
 112 181 112 181 112 172 c 0,14,15
 112 100 112 100 227 100 c 0,16,17
 312 100 312 100 380 146 c 1,18,-1
 380 149 l 2,19,20
 380 174 380 174 366 208 c 128,-1,21
 352 242 352 242 302 298.5 c 128,-1,22
 252 355 252 355 172 405 c 1,23,-1
 201 506 l 1,24,25
 332 432 332 432 388 347.5 c 128,-1,26
 444 263 444 263 444 186 c 0,0,1
EndSplineSet
Colour: ffda6b
EndChar

StartChar: _.dal.fina
Encoding: 65593 -1 57
GlifName: _.dal.fina
Width: 606
VWidth: 1304
GlyphClass: 1
UnlinkRmOvrlpSave: 1
Flags: MW
LayerCount: 2
Fore
SplineSet
64 148 m 2,0,-1
 64 171 l 2,1,2
 64 191 64 191 87 191 c 0,3,4
 97 191 97 191 104.5 186 c 128,-1,5
 112 181 112 181 112 172 c 0,6,7
 112 100 112 100 227 100 c 0,8,9
 311 100 311 100 378 145 c 1,10,11
 368 174 368 174 358 215.5 c 128,-1,12
 348 257 348 257 333.5 323.5 c 128,-1,13
 319 390 319 390 307 438 c 1,14,-1
 382 482 l 1,15,16
 392 438 392 438 402 388.5 c 128,-1,17
 412 339 412 339 418 311 c 128,-1,18
 424 283 424 283 430.5 250 c 128,-1,19
 437 217 437 217 443 201 c 128,-1,20
 449 185 449 185 456.5 165.5 c 128,-1,21
 464 146 464 146 473.5 138 c 128,-1,22
 483 130 483 130 494.5 121 c 128,-1,23
 506 112 506 112 523 109 c 128,-1,24
 540 106 540 106 559 103.5 c 128,-1,25
 578 101 578 101 606 100 c 1,26,-1
 606 -0 l 1,27,28
 528 3 528 3 483.5 20 c 128,-1,29
 439 37 439 37 412 75 c 1,30,31
 358 0 358 0 225 0 c 0,32,33
 169 0 169 0 135 10 c 128,-1,34
 101 20 101 20 86 43 c 128,-1,35
 71 66 71 66 67.5 87.5 c 128,-1,36
 64 109 64 109 64 148 c 2,0,-1
EndSplineSet
Colour: ffda6b
EndChar

StartChar: _.ree.isol
Encoding: 65594 -1 58
GlifName: _.ree.isol
Width: 506
VWidth: 1304
GlyphClass: 1
UnlinkRmOvrlpSave: 1
Flags: MW
LayerCount: 2
Fore
SplineSet
64 -241 m 0,0,1
 64 -237 64 -237 69 -232 c 0,2,3
 221 -176 221 -176 292.5 -103 c 128,-1,4
 364 -30 364 -30 364 28 c 2,5,-1
 364 33 l 1,6,7
 360 60 360 60 348.5 98.5 c 128,-1,8
 337 137 337 137 319 191 c 128,-1,9
 301 245 301 245 299 250 c 1,10,-1
 374 314 l 1,11,12
 430 169 430 169 439 90 c 0,13,14
 442 73.5 442 73.5 442 57 c 2,15,-1
 442 45 l 2,16,17
 442 9 442 9 431 -24 c 0,18,19
 403 -124 403 -124 319 -206 c 128,-1,20
 235 -288 235 -288 160 -301 c 0,21,22
 140 -301 140 -301 102 -279.5 c 128,-1,23
 64 -258 64 -258 64 -241 c 0,0,1
EndSplineSet
Colour: ffda6b
EndChar

StartChar: _.ree.fina
Encoding: 65595 -1 59
GlifName: _.ree.fina
Width: 602
VWidth: 1304
GlyphClass: 1
UnlinkRmOvrlpSave: 1
Flags: MW
LayerCount: 2
Fore
SplineSet
602 -0 m 1,0,1
 514 -0 514 -0 442 36 c 1,2,3
 440 4 440 4 431 -24 c 0,4,5
 403 -124 403 -124 319 -206 c 128,-1,6
 235 -288 235 -288 160 -301 c 0,7,8
 140 -301 140 -301 102 -279.5 c 128,-1,9
 64 -258 64 -258 64 -241 c 0,10,11
 64 -237 64 -237 69 -232 c 0,12,13
 221 -176 221 -176 292.5 -103 c 128,-1,14
 364 -30 364 -30 364 28 c 2,15,-1
 364 33 l 1,16,17
 360 60 360 60 348.5 98.5 c 128,-1,18
 337 137 337 137 319 191 c 128,-1,19
 301 245 301 245 299 250 c 1,20,-1
 374 314 l 1,21,22
 398 252 398 252 411 213 c 0,23,24
 440 130 440 130 480 119 c 0,25,26
 543 100 543 100 602 100 c 1,27,-1
 602 -0 l 1,0,1
EndSplineSet
Colour: ffda6b
EndChar

StartChar: _.he8.isol
Encoding: 65596 -1 60
GlifName: _.he8.isol
Width: 471
VWidth: 1304
GlyphClass: 1
UnlinkRmOvrlpSave: 1
Flags: MW
LayerCount: 2
Fore
SplineSet
237 -0 m 1,0,-1
 217 -0 l 1,1,-1
 217 1 l 1,2,3
 141 5 141 5 102.5 42 c 128,-1,4
 64 79 64 79 64 141 c 0,5,6
 64 205 64 205 105 289 c 2,7,-1
 154 388 l 1,8,-1
 124 415 l 1,9,-1
 173 502 l 1,10,11
 251 436 251 436 301 384.5 c 128,-1,12
 351 333 351 333 372.5 295 c 128,-1,13
 394 257 394 257 400.5 233 c 128,-1,14
 407 209 407 209 407 180 c 2,15,-1
 407 162 l 2,16,17
 407 94 407 94 362 49.5 c 128,-1,18
 317 5 317 5 237 1 c 1,19,-1
 237 -0 l 1,0,-1
126 176 m 0,20,21
 126 104 126 104 237 100 c 0,22,23
 282 102 282 102 316.5 119 c 128,-1,24
 351 136 351 136 351 163 c 0,25,26
 351 192 351 192 314.5 234.5 c 128,-1,27
 278 277 278 277 195 352 c 1,28,-1
 146 247 l 2,29,30
 126 200 126 200 126 176 c 0,20,21
EndSplineSet
Colour: ffda6b
EndChar

StartChar: _.he8.fina
Encoding: 65597 -1 61
GlifName: _.he8.fina
Width: 526
VWidth: 1304
GlyphClass: 1
UnlinkRmOvrlpSave: 1
Flags: MW
LayerCount: 2
Fore
SplineSet
64 220 m 0,0,1
 64 283 64 283 110 337 c 0,2,3
 120 348 120 348 134.5 360.5 c 128,-1,4
 149 373 149 373 164 383 c 128,-1,5
 179 393 179 393 210.5 415 c 128,-1,6
 242 437 242 437 270 457 c 1,7,-1
 264 513 l 1,8,-1
 340 577 l 1,9,-1
 384 200 l 2,10,11
 384 197 384 197 386 185.5 c 128,-1,12
 388 174 388 174 389 170 c 128,-1,13
 390 166 390 166 393 155.5 c 128,-1,14
 396 145 396 145 400 140.5 c 128,-1,15
 404 136 404 136 411 128 c 128,-1,16
 418 120 418 120 428.5 116.5 c 128,-1,17
 439 113 439 113 452.5 108.5 c 128,-1,18
 466 104 466 104 484.5 102 c 128,-1,19
 503 100 503 100 526 100 c 1,20,-1
 526 -0 l 1,21,22
 336 -0 336 -0 313 122 c 1,23,24
 271 106 271 106 214 106 c 0,25,26
 184 106 184 106 155 112 c 0,27,28
 109 121 109 121 86.5 150 c 128,-1,29
 64 179 64 179 64 220 c 0,0,1
134 247 m 0,30,31
 134 214 134 214 213 214 c 0,32,33
 263 214 263 214 299 223 c 1,34,-1
 281 374 l 1,35,36
 217 334 217 334 155 283 c 0,37,38
 134 265 134 265 134 247 c 0,30,31
EndSplineSet
Colour: ffda6b
EndChar

StartChar: _.he8.medi
Encoding: 65598 -1 62
GlifName: _.he8.medi
Width: 497
VWidth: 1304
GlyphClass: 1
UnlinkRmOvrlpSave: 1
Flags: MW
LayerCount: 2
Fore
SplineSet
-50 50 m 0,0,1
 -49 69 -49 69 -35 84 c 128,-1,2
 -21 99 -21 99 -2 100 c 2,3,-1
 42 100 l 2,4,5
 52 100 52 100 58 101 c 1,6,7
 57 113 57 113 57 137 c 0,8,9
 57 235 57 235 98.5 324 c 128,-1,10
 140 413 140 413 220 471 c 1,11,12
 345 397 345 397 345 273 c 0,13,14
 345 191 345 191 289 118.5 c 128,-1,15
 233 46 233 46 146 16 c 1,16,17
 186 -67 186 -67 276 -120 c 1,18,19
 260 -85 260 -85 260 -47 c 0,20,21
 260 15 260 15 303 57.5 c 128,-1,22
 346 100 346 100 423 100 c 2,23,-1
 497 100 l 1,24,-1
 497 -0 l 1,25,-1
 398 -0 l 2,26,27
 366 -0 366 -0 348 -21.5 c 128,-1,28
 330 -43 330 -43 330 -74 c 0,29,30
 330 -103 330 -103 346 -129 c 128,-1,31
 362 -155 362 -155 393 -169 c 0,32,33
 401 -171 401 -171 415.5 -175 c 128,-1,34
 430 -179 430 -179 435 -180 c 1,35,-1
 382 -264 l 1,36,37
 266 -244 266 -244 188 -172.5 c 128,-1,38
 110 -101 110 -101 78 1 c 1,39,40
 69 0 69 0 52 0 c 2,41,-1
 -2 -0 l 2,42,43
 -21 1 -21 1 -35.5 16 c 128,-1,44
 -50 31 -50 31 -50 50 c 0,0,1
122 127 m 2,45,-1
 122 108 l 1,46,47
 192 121 192 121 239.5 153 c 128,-1,48
 287 185 287 185 287 233 c 0,49,50
 287 285 287 285 222 349 c 1,51,52
 122 246 122 246 122 127 c 2,45,-1
EndSplineSet
Colour: ffda6b
EndChar

StartChar: _.he8.init
Encoding: 65599 -1 63
GlifName: _.he8.init
Width: 574
VWidth: 1304
GlyphClass: 1
UnlinkRmOvrlpSave: 1
Flags: MW
LayerCount: 2
Fore
SplineSet
-50 49 m 0,0,1
 -50 68 -50 68 -35.5 83.5 c 128,-1,2
 -21 99 -21 99 -3 100 c 0,3,4
 60 100 60 100 120 122 c 1,5,6
 64 157 64 157 64 221 c 0,7,8
 64 245 64 245 72 280 c 0,9,10
 89 359 89 359 120 404 c 1,11,-1
 124 516 l 1,12,13
 196 482 196 482 247 454 c 0,14,15
 258 450 258 450 264 444 c 0,16,17
 383 379 383 379 436 326 c 128,-1,18
 489 273 489 273 505 209 c 0,19,20
 510 187 510 187 510 167 c 0,21,22
 510 113 510 113 487 64 c 0,23,24
 462 0 462 0 410 0 c 0,25,26
 376 0 376 0 318 28 c 2,27,-1
 220 74 l 1,28,29
 123 0 123 0 -1 0 c 0,30,31
 -19 1 -19 1 -34.5 16 c 128,-1,32
 -50 31 -50 31 -50 49 c 0,0,1
120 256 m 0,33,34
 120 225 120 225 180 197 c 2,35,-1
 225 178 l 1,36,37
 276 214 276 214 279 244 c 0,38,39
 279 278 279 278 257.5 318.5 c 128,-1,40
 236 359 236 359 208 359 c 2,41,-1
 207 359 l 2,42,43
 184 359 184 359 160.5 334 c 128,-1,44
 137 309 137 309 124 274 c 0,45,46
 120 265 120 265 120 256 c 0,33,34
291 149 m 1,47,-1
 358 120 l 2,48,49
 423 92 423 92 436 92 c 0,50,51
 443 92 443 92 447 93 c 0,52,53
 450 110 450 110 450 125 c 0,54,55
 450 220 450 220 327 300 c 1,56,57
 328 289 328 289 328 269 c 0,58,59
 328 209 328 209 291 149 c 1,47,-1
EndSplineSet
Colour: ffda6b
EndChar

StartChar: _.yeh.fina
Encoding: 65600 -1 64
GlifName: _.yeh.fina
Width: 762
VWidth: 1304
GlyphClass: 1
UnlinkRmOvrlpSave: 1
Flags: MW
LayerCount: 2
Fore
SplineSet
64 -56 m 0,0,1
 64 65 64 65 133 237 c 1,2,-1
 192 214 l 1,3,4
 135 81 135 81 135 -19 c 0,5,6
 135 -108 135 -108 182.5 -154.5 c 128,-1,7
 230 -201 230 -201 316 -201 c 0,8,9
 395 -201 395 -201 484 -161.5 c 128,-1,10
 573 -122 573 -122 625 -65 c 0,11,12
 630 -59 630 -59 630 -51 c 0,13,14
 630 -39 630 -39 617 -27.5 c 128,-1,15
 604 -16 604 -16 579.5 -4.5 c 128,-1,16
 555 7 555 7 532.5 15.5 c 128,-1,17
 510 24 510 24 477 36 c 128,-1,18
 444 48 444 48 428 54 c 0,19,20
 415 60 415 60 425 80 c 2,21,-1
 436 111 l 2,22,23
 447 137 447 137 453 146 c 128,-1,24
 459 155 459 155 470 155 c 0,25,26
 476 155 476 155 484 152 c 0,27,28
 586 121 586 121 638 110.5 c 128,-1,29
 690 100 690 100 762 100 c 1,30,-1
 762 -0 l 1,31,32
 737 -0 737 -0 701 2 c 1,33,34
 702 -0 702 -0 702 -12 c 0,35,36
 702 -87 702 -87 644 -154.5 c 128,-1,37
 586 -222 586 -222 497.5 -261.5 c 128,-1,38
 409 -301 409 -301 317 -301 c 0,39,40
 206 -301 206 -301 135 -242.5 c 128,-1,41
 64 -184 64 -184 64 -56 c 0,0,1
EndSplineSet
Colour: ffda6b
EndChar

StartChar: _.yeh.isol
Encoding: 65601 -1 65
GlifName: _.yeh.isol
Width: 787
VWidth: 1304
GlyphClass: 1
UnlinkRmOvrlpSave: 1
Flags: MW
LayerCount: 2
Fore
SplineSet
64 -56 m 0,0,1
 64 65 64 65 133 237 c 1,2,-1
 192 214 l 1,3,4
 135 81 135 81 135 -19 c 0,5,6
 135 -108 135 -108 183 -154.5 c 128,-1,7
 231 -201 231 -201 317 -201 c 0,8,9
 395 -201 395 -201 484 -161.5 c 128,-1,10
 573 -122 573 -122 625 -65 c 0,11,12
 631 -53 631 -53 631 -41 c 0,13,14
 631 0 631 0 546 0 c 2,15,-1
 431 -0 l 2,16,17
 400 0 400 0 383.5 26.5 c 128,-1,18
 367 53 367 53 367 96 c 0,19,20
 367 141 367 141 386 189.5 c 128,-1,21
 405 238 405 238 440.5 282 c 128,-1,22
 476 326 476 326 537.5 354.5 c 128,-1,23
 599 383 599 383 674 383 c 0,24,25
 698 383 698 383 723 380 c 1,26,-1
 685 279 l 1,27,28
 665 281 665 281 656 281 c 0,29,30
 568 281 568 281 501 231.5 c 128,-1,31
 434 182 434 182 434 140 c 0,32,33
 434 111 434 111 473 111 c 2,34,-1
 595 111 l 2,35,36
 652 111 652 111 677 74.5 c 128,-1,37
 702 38 702 38 702 -12 c 0,38,39
 702 -87 702 -87 644 -154.5 c 128,-1,40
 586 -222 586 -222 497.5 -261.5 c 128,-1,41
 409 -301 409 -301 318 -301 c 0,42,43
 266 -301 266 -301 222 -288 c 128,-1,44
 178 -275 178 -275 141.5 -247.5 c 128,-1,45
 105 -220 105 -220 84.5 -171.5 c 128,-1,46
 64 -123 64 -123 64 -56 c 0,0,1
EndSplineSet
Colour: ffda6b
EndChar

StartChar: _.hamze.isol
Encoding: 65602 -1 66
GlifName: _.hamze.isol
Width: 515
VWidth: 1304
GlyphClass: 2
Flags: MW
LayerCount: 2
Fore
SplineSet
312 339 m 0,0,1
 259 339 259 339 213 314.5 c 128,-1,2
 167 290 167 290 167 258 c 0,3,4
 167 202 167 202 246 157 c 1,5,-1
 419 239 l 1,6,-1
 451 170 l 1,7,-1
 96 5 l 1,8,-1
 64 74 l 1,9,-1
 169 123 l 1,10,11
 103 168 103 168 103 243 c 0,12,13
 103 261 103 261 106 279 c 0,14,15
 116 336 116 336 164 377 c 128,-1,16
 212 418 212 418 292 418 c 0,17,18
 325 418 325 418 359 411 c 1,19,-1
 343 336 l 1,20,21
 328 339 328 339 312 339 c 0,0,1
EndSplineSet
Validated: 1
Colour: ffda6b
EndChar

StartChar: _.keshide.medi
Encoding: 65603 -1 67
GlifName: _.keshide.medi
Width: 235
VWidth: 1304
GlyphClass: 2
Flags: MW
LayerCount: 2
Fore
SplineSet
-50 50 m 128,-1,1
 -50 70 -50 70 -40 85 c 128,-1,2
 -30 100 -30 100 -12 100 c 2,3,-1
 235 100 l 1,4,-1
 235 0 l 1,5,-1
 -12 0 l 2,6,7
 -30 0 -30 0 -40 15 c 128,-1,0
 -50 30 -50 30 -50 50 c 128,-1,1
EndSplineSet
Validated: 1
Colour: ffda6b
EndChar

StartChar: _.dot.1u
Encoding: 65604 -1 68
GlifName: _.dot.1u
Width: 0
VWidth: 1304
GlyphClass: 2
Flags: MW
LayerCount: 2
Fore
SplineSet
4 54 m 2,0,-1
 49 113 l 2,1,2
 60 126 60 126 75 116 c 2,3,-1
 132 72 l 2,4,5
 147 62 147 62 136 45 c 2,6,-1
 92 -12 l 2,7,8
 88 -19 88 -19 79.5 -20 c 128,-1,9
 71 -21 71 -21 66 -16 c 2,10,-1
 7 28 l 2,11,12
 -7 40 -7 40 4 54 c 2,0,-1
EndSplineSet
Validated: 1
Colour: ffda6b
EndChar

StartChar: _.dot.2u
Encoding: 65605 -1 69
GlifName: _.dot.2u
Width: 0
VWidth: 1304
GlyphClass: 2
UnlinkRmOvrlpSave: 1
Flags: MW
LayerCount: 2
Fore
SplineSet
3 68 m 2,0,-1
 45 122 l 2,1,2
 55 137 55 137 69 125 c 2,3,-1
 124 85 l 2,4,5
 129 80 129 80 129.5 72.5 c 128,-1,6
 130 65 130 65 126 60 c 2,7,-1
 85 6 l 2,8,9
 73 -8 73 -8 61 2 c 2,10,-1
 7 43 l 2,11,12
 -7 55 -7 55 3 68 c 2,0,-1
164 68 m 2,13,-1
 205 122 l 2,14,15
 215 137 215 137 229 125 c 2,16,-1
 284 85 l 2,17,18
 289 80 289 80 289.5 72.5 c 128,-1,19
 290 65 290 65 286 60 c 2,20,-1
 245 6 l 2,21,22
 233 -8 233 -8 221 2 c 2,23,-1
 167 43 l 2,24,25
 153 55 153 55 164 68 c 2,13,-1
EndSplineSet
Colour: ffda6b
EndChar

StartChar: _.dot.3u
Encoding: 65606 -1 70
GlifName: _.dot.3u
Width: 0
VWidth: 1304
GlyphClass: 2
UnlinkRmOvrlpSave: 1
Flags: MW
LayerCount: 2
Fore
SplineSet
3 68 m 2,0,-1
 45 122 l 2,1,2
 55 137 55 137 69 125 c 2,3,-1
 124 85 l 2,4,5
 129 80 129 80 129.5 72.5 c 128,-1,6
 130 65 130 65 126 60 c 2,7,-1
 85 6 l 2,8,9
 73 -8 73 -8 61 2 c 2,10,-1
 7 43 l 2,11,12
 -7 55 -7 55 3 68 c 2,0,-1
81 207 m 2,13,-1
 119 257 l 2,14,15
 130 268 130 268 142 260 c 2,16,-1
 191 221 l 2,17,18
 205 211 205 211 194 199 c 2,19,-1
 156 149 l 2,20,21
 146 137 146 137 133 146 c 2,22,-1
 84 183 l 2,23,24
 72 194 72 194 81 207 c 2,13,-1
164 68 m 2,25,-1
 205 122 l 2,26,27
 215 137 215 137 229 125 c 2,28,-1
 284 85 l 2,29,30
 289 80 289 80 289.5 72.5 c 128,-1,31
 290 65 290 65 286 60 c 2,32,-1
 245 6 l 2,33,34
 233 -8 233 -8 221 2 c 2,35,-1
 167 43 l 2,36,37
 153 55 153 55 164 68 c 2,25,-1
EndSplineSet
Colour: ffda6b
EndChar

StartChar: _.dot.1d
Encoding: 65607 -1 71
GlifName: _.dot.1d
Width: 0
VWidth: 1304
GlyphClass: 2
Flags: MW
LayerCount: 2
Fore
SplineSet
4 -67 m 1,0,-1
 48 -8 l 2,1,2
 52 -1 52 -1 60.5 0 c 128,-1,3
 69 1 69 1 74 -4 c 2,4,-1
 132 -48 l 2,5,6
 147 -58 147 -58 136 -74 c 2,7,-1
 91 -133 l 2,8,9
 86 -138 86 -138 78 -139.5 c 128,-1,10
 70 -141 70 -141 65 -137 c 2,11,-1
 8 -93 l 2,12,13
 1 -89 1 -89 0 -80.5 c 128,-1,14
 -1 -72 -1 -72 4 -67 c 1,0,-1
EndSplineSet
Validated: 1
Colour: ffda6b
EndChar

StartChar: _.dot.2d
Encoding: 65608 -1 72
GlifName: _.dot.2d
Width: 0
VWidth: 1304
GlyphClass: 2
UnlinkRmOvrlpSave: 1
Flags: MW
LayerCount: 2
Fore
SplineSet
3 -62 m 2,0,-1
 45 -8 l 2,1,2
 55 8 55 8 69 -4 c 2,3,-1
 124 -45 l 2,4,5
 137 -56 137 -56 126 -69 c 2,6,-1
 85 -123 l 2,7,8
 73 -137 73 -137 61 -127 c 2,9,-1
 7 -86 l 2,10,11
 -6 -75 -6 -75 3 -62 c 2,0,-1
164 -62 m 1,12,-1
 205 -8 l 2,13,14
 215 8 215 8 229 -4 c 2,15,-1
 284 -45 l 2,16,17
 297 -56 297 -56 286 -69 c 2,18,-1
 245 -123 l 2,19,20
 233 -137 233 -137 221 -127 c 2,21,-1
 167 -86 l 2,22,23
 153 -74 153 -74 164 -62 c 1,12,-1
EndSplineSet
Colour: ffda6b
EndChar

StartChar: _.dot.3d
Encoding: 65609 -1 73
GlifName: _.dot.3d
Width: 0
VWidth: 1304
GlyphClass: 2
UnlinkRmOvrlpSave: 1
Flags: MW
LayerCount: 2
Fore
SplineSet
3 -62 m 2,0,-1
 45 -8 l 2,1,2
 55 8 55 8 69 -4 c 2,3,-1
 124 -45 l 2,4,5
 137 -56 137 -56 126 -69 c 2,6,-1
 85 -123 l 2,7,8
 73 -137 73 -137 61 -127 c 2,9,-1
 7 -86 l 2,10,11
 -6 -75 -6 -75 3 -62 c 2,0,-1
90 -203 m 2,12,-1
 129 -153 l 2,13,14
 140 -140 140 -140 152 -149 c 2,15,-1
 201 -187 l 2,16,17
 214 -196 214 -196 205 -209 c 2,18,-1
 167 -260 l 2,19,20
 156 -273 156 -273 143 -264 c 2,21,-1
 94 -225 l 2,22,23
 89 -221 89 -221 87.5 -214.5 c 128,-1,24
 86 -208 86 -208 90 -203 c 2,12,-1
164 -62 m 1,25,-1
 205 -8 l 2,26,27
 215 8 215 8 229 -4 c 2,28,-1
 284 -45 l 2,29,30
 297 -56 297 -56 286 -69 c 2,31,-1
 245 -123 l 2,32,33
 233 -137 233 -137 221 -127 c 2,34,-1
 167 -86 l 2,35,36
 153 -74 153 -74 164 -62 c 1,25,-1
EndSplineSet
Colour: ffda6b
EndChar

StartChar: _.num.0
Encoding: 65611 -1 75
GlifName: _.num.0
Width: 450
VWidth: 1424
GlyphClass: 2
Flags: MW
LayerCount: 2
Fore
SplineSet
75 327 m 128,-1,1
 75 388 75 388 119.5 432.5 c 128,-1,2
 164 477 164 477 225 477 c 128,-1,3
 286 477 286 477 330.5 432.5 c 128,-1,4
 375 388 375 388 375 327 c 128,-1,5
 375 266 375 266 330.5 221.5 c 128,-1,6
 286 177 286 177 225 177 c 128,-1,7
 164 177 164 177 119.5 221.5 c 128,-1,0
 75 266 75 266 75 327 c 128,-1,1
150 327 m 128,-1,9
 150 296 150 296 172 274 c 128,-1,10
 194 252 194 252 225 252 c 128,-1,11
 256 252 256 252 278 274 c 128,-1,12
 300 296 300 296 300 327 c 128,-1,13
 300 358 300 358 278 380 c 128,-1,14
 256 402 256 402 225 402 c 128,-1,15
 194 402 194 402 172 380 c 128,-1,8
 150 358 150 358 150 327 c 128,-1,9
EndSplineSet
Validated: 1
Colour: ffda6b
EndChar

StartChar: _.num.1
Encoding: 65612 -1 76
GlifName: _.num.1
Width: 349
VWidth: 1331
GlyphClass: 2
Flags: MW
LayerCount: 2
Fore
SplineSet
75 699 m 1,0,-1
 160 799 l 1,1,2
 236 578 236 578 255 446 c 128,-1,3
 274 314 274 314 274 0 c 1,4,-1
 203 -20 l 1,5,6
 190 249 190 249 167.5 389 c 128,-1,7
 145 529 145 529 75 699 c 1,0,-1
EndSplineSet
Validated: 1
Colour: ffda6b
EndChar

StartChar: _.num.2
Encoding: 65613 -1 77
GlifName: _.num.2
Width: 625
VWidth: 1331
GlyphClass: 2
Flags: MW
LayerCount: 2
Fore
SplineSet
75 699 m 1,0,-1
 160 799 l 1,1,2
 214 637 214 637 233 561 c 1,3,4
 286 522 286 522 345 522 c 0,5,6
 392 522 392 522 425 545.5 c 128,-1,7
 458 569 458 569 458 599 c 2,8,-1
 458 601 l 1,9,-1
 452 752 l 1,10,-1
 544 758 l 1,11,-1
 550 614 l 1,12,-1
 550 612 l 2,13,14
 550 513 550 513 487.5 457 c 128,-1,15
 425 401 425 401 338 401 c 0,16,17
 295 401 295 401 260 413 c 1,18,19
 274 293 274 293 274 0 c 1,20,-1
 203 -20 l 1,21,22
 190 249 190 249 167.5 389 c 128,-1,23
 145 529 145 529 75 699 c 1,0,-1
EndSplineSet
Validated: 1
Colour: ffda6b
EndChar

StartChar: _.num.3
Encoding: 65614 -1 78
GlifName: _.num.3
Width: 844
VWidth: 1331
GlyphClass: 2
Flags: MW
LayerCount: 2
Fore
SplineSet
75 699 m 1,0,-1
 160 799 l 1,1,2
 216 635 216 635 239 539 c 1,3,4
 276 522 276 522 314 522 c 0,5,6
 361 522 361 522 393.5 545.5 c 128,-1,7
 426 569 426 569 426 599 c 2,8,-1
 426 601 l 1,9,-1
 420 752 l 1,10,-1
 512 758 l 1,11,-1
 518 614 l 2,12,13
 518 576 518 576 511 551 c 1,14,15
 539.5 542 539.5 542 565 542 c 0,16,17
 612 542 612 542 644.5 565.5 c 128,-1,18
 677 589 677 589 677 618 c 2,19,-1
 677 620 l 1,20,-1
 671 772 l 1,21,-1
 763 779 l 1,22,-1
 769 634 l 1,23,-1
 769 632 l 2,24,25
 769 533 769 533 706.5 477 c 128,-1,26
 644 421 644 421 557 421 c 0,27,28
 508 421 508 421 460 441 c 1,29,-1
 441 444 l 1,30,31
 385 400 385 400 307 400 c 0,32,33
 286 400 286 400 261 405 c 1,34,35
 274 286 274 286 274 0 c 1,36,-1
 203 -20 l 1,37,38
 190 249 190 249 167.5 389 c 128,-1,39
 145 529 145 529 75 699 c 1,0,-1
EndSplineSet
Validated: 1
Colour: ffda6b
EndChar

StartChar: _.num.4.fa
Encoding: 65615 -1 79
GlifName: _.num.4.fa
Width: 741
VWidth: 1331
GlyphClass: 2
Flags: MW
LayerCount: 2
Fore
SplineSet
268 605 m 0,0,1
 268 698 268 698 326 747.5 c 128,-1,2
 384 797 384 797 464 797 c 0,3,4
 515 797 515 797 562 778.5 c 128,-1,5
 609 760 609 760 635 729 c 1,6,-1
 614 671 l 1,7,8
 568 695 568 695 496 695 c 0,9,10
 398 695 398 695 346 638 c 0,11,12
 346 636 346 636 345.5 630 c 128,-1,13
 345 624 345 624 345 622 c 0,14,15
 345 570 345 570 365.5 527.5 c 128,-1,16
 386 485 386 485 425 437 c 1,17,18
 435 436 435 436 454 436 c 0,19,20
 469 436 469 436 483.5 437 c 128,-1,21
 498 438 498 438 514.5 441.5 c 128,-1,22
 531 445 531 445 539.5 446.5 c 128,-1,23
 548 448 548 448 568 454 c 128,-1,24
 588 460 588 460 592 461 c 128,-1,25
 596 462 596 462 619.5 470.5 c 2,26,-1
 643 479 l 1,27,-1
 666 379 l 1,28,29
 539 329 539 329 409 329 c 0,30,31
 327 329 327 329 266 348 c 1,32,33
 274 245 274 245 274 0 c 1,34,-1
 203 -20 l 1,35,36
 190 249 190 249 167.5 389 c 128,-1,37
 145 529 145 529 75 699 c 1,38,-1
 160 799 l 1,39,40
 226 609 226 609 247 496 c 1,41,42
 258 490 258 490 294 473 c 1,43,44
 268 541 268 541 268 605 c 0,0,1
EndSplineSet
Validated: 1
Colour: ffda6b
EndChar

StartChar: _.num.5.fa
Encoding: 65617 -1 81
GlifName: _.num.5.fa
Width: 742
VWidth: 1331
GlyphClass: 2
Flags: MW
LayerCount: 2
Fore
SplineSet
227 -7 m 0,0,1
 163 -7 163 -7 119 38.5 c 128,-1,2
 75 84 75 84 75 162 c 0,3,4
 75 187 75 187 81.5 222 c 128,-1,5
 88 257 88 257 106.5 320.5 c 128,-1,6
 125 384 125 384 173 471.5 c 128,-1,7
 221 559 221 559 291 652 c 1,8,-1
 315 634 l 2,9,10
 273 668.5 273 668.5 222 703 c 1,11,-1
 283 800 l 1,12,13
 291 795 291 795 304.5 786 c 128,-1,14
 318 777 318 777 357 746 c 128,-1,15
 396 715 396 715 431.5 680.5 c 128,-1,16
 467 646 467 646 511 591 c 128,-1,17
 555 536 555 536 587 478.5 c 128,-1,18
 619 421 619 421 642 344 c 128,-1,19
 665 267 665 267 667 188 c 2,20,-1
 667 186 l 2,21,22
 667 175 667 175 666 160 c 128,-1,23
 665 145 665 145 657.5 115.5 c 128,-1,24
 650 86 650 86 638 63 c 128,-1,25
 626 40 626 40 600 21 c 128,-1,26
 574 2 574 2 539 0 c 0,27,28
 532 0 532 0 517 -1 c 128,-1,29
 502 -2 502 -2 493 -2 c 0,30,31
 397 -2 397 -2 366 80 c 1,32,33
 344 37 344 37 306.5 15 c 128,-1,34
 269 -7 269 -7 227 -7 c 0,0,1
509 129 m 0,35,36
 570 129 570 129 570 185 c 0,37,38
 570 203 570 203 567.5 225 c 128,-1,39
 565 247 565 247 553 291 c 128,-1,40
 541 335 541 335 521 378.5 c 128,-1,41
 501 422 501 422 460.5 479.5 c 128,-1,42
 420 537 420 537 365 589 c 1,43,44
 182 338 182 338 182 204 c 0,45,46
 182 164 182 164 199 143 c 128,-1,47
 216 122 216 122 241 122 c 0,48,49
 274 122 274 122 301.5 154.5 c 128,-1,50
 329 187 329 187 329 238 c 2,51,-1
 329 251 l 1,52,-1
 414 273 l 1,53,-1
 414 268 l 2,54,55
 414 225 414 225 421 191 c 0,56,57
 427 163 427 163 453 146 c 128,-1,58
 479 129 479 129 509 129 c 0,35,36
EndSplineSet
Validated: 1
Colour: ffda6b
EndChar

StartChar: _.num.6.fa
Encoding: 65619 -1 83
GlifName: _.num.6.fa
Width: 786
VWidth: 1331
GlyphClass: 2
Flags: MW
LayerCount: 2
Fore
SplineSet
75 20 m 1,0,1
 280 233 280 233 370 306 c 1,2,3
 304 345 304 345 258 414.5 c 128,-1,4
 212 484 212 484 212 556 c 0,5,6
 212 580 212 580 218 604 c 0,7,8
 244 698 244 698 319 749 c 128,-1,9
 394 800 394 800 492 800 c 0,10,11
 562 800 562 800 633 773 c 1,12,-1
 619 684 l 1,13,14
 572 693 572 693 540 693 c 0,15,16
 396 693 396 693 313 577 c 1,17,18
 337 516 337 516 378 464 c 128,-1,19
 419 412 419 412 470 381 c 1,20,21
 556 437 556 437 711 518 c 1,22,-1
 704 388 l 1,23,24
 587 336 587 336 490.5 272 c 128,-1,25
 394 208 394 208 322 146 c 128,-1,26
 250 84 250 84 113 -45 c 1,27,-1
 75 20 l 1,0,1
EndSplineSet
Validated: 1
Colour: ffda6b
EndChar

StartChar: _.num.7
Encoding: 65621 -1 85
GlifName: _.num.7
Width: 697
VWidth: 1331
GlyphClass: 2
Flags: MW
LayerCount: 2
Fore
SplineSet
75 699 m 1,0,-1
 159 799 l 1,1,2
 289 531 289 531 348 280 c 1,3,4
 404 522 404 522 538 799 c 1,5,-1
 622 699 l 1,6,7
 528 531 528 531 456 322 c 128,-1,8
 384 113 384 113 384 0 c 1,9,-1
 313 -20 l 1,10,11
 306 105 306 105 237.5 317 c 128,-1,12
 169 529 169 529 75 699 c 1,0,-1
EndSplineSet
Validated: 1
Colour: ffda6b
EndChar

StartChar: _.num.8
Encoding: 65622 -1 86
GlifName: _.num.8
Width: 697
VWidth: 1331
GlyphClass: 2
Flags: MW
LayerCount: 2
Fore
SplineSet
75 80 m 1,0,1
 169 250 169 250 237.5 462 c 128,-1,2
 306 674 306 674 313 799 c 1,3,-1
 384 779 l 1,4,5
 384 666 384 666 456 457 c 128,-1,6
 528 248 528 248 622 80 c 1,7,-1
 538 -20 l 1,8,9
 404 258 404 258 348 498 c 1,10,11
 289 249 289 249 159 -20 c 1,12,-1
 75 80 l 1,0,1
EndSplineSet
Validated: 1
Colour: ffda6b
EndChar

StartChar: _.num.9
Encoding: 65623 -1 87
GlifName: _.num.9
Width: 622
VWidth: 1331
GlyphClass: 2
Flags: MW
LayerCount: 2
Fore
SplineSet
75 554 m 0,0,1
 75 646 75 646 130 723 c 128,-1,2
 185 800 185 800 263 800 c 0,3,4
 336 800 336 800 385.5 724.5 c 128,-1,5
 435 649 435 649 438 508 c 0,6,7
 439 488 439 488 444.5 444.5 c 128,-1,8
 450 401 450 401 451 388 c 0,9,10
 461 271 461 271 481 195.5 c 128,-1,11
 501 120 501 120 547 80 c 1,12,-1
 463 -20 l 1,13,14
 384 100 384 100 359 379 c 1,15,-1
 345 379 l 1,16,17
 306 371 306 371 266 371 c 0,18,19
 169 371 169 371 122 423 c 128,-1,20
 75 475 75 475 75 554 c 0,0,1
157 586 m 0,21,22
 157 545 157 545 187.5 516 c 128,-1,23
 218 487 218 487 279 487 c 0,24,25
 309 487 309 487 348 496 c 0,26,27
 348 498 348 498 348.5 503 c 128,-1,28
 349 508 349 508 349 511 c 0,29,30
 349 591 349 591 319.5 631.5 c 128,-1,31
 290 672 290 672 249 679 c 0,32,33
 241 681 241 681 236 681 c 0,34,35
 203 681 203 681 180 652 c 128,-1,36
 157 623 157 623 157 586 c 0,21,22
EndSplineSet
Validated: 1
Colour: ffda6b
EndChar

StartChar: _.sing.backslash
Encoding: 65624 -1 88
GlifName: _.sing.backslash
Width: 442
VWidth: 1197
GlyphClass: 2
Flags: MW
LayerCount: 2
Fore
SplineSet
50 720 m 1,0,-1
 151 720 l 1,1,-1
 392 -14 l 1,2,-1
 290 -14 l 1,3,-1
 50 720 l 1,0,-1
EndSplineSet
Validated: 1
Colour: ffda6b
EndChar

StartChar: _.sing.slash
Encoding: 65625 -1 89
GlifName: _.sing.slash
Width: 442
VWidth: 1197
GlyphClass: 2
Flags: MW
LayerCount: 2
Fore
SplineSet
50 -14 m 1,0,-1
 290 720 l 1,1,-1
 392 720 l 1,2,-1
 151 -14 l 1,3,-1
 50 -14 l 1,0,-1
EndSplineSet
Validated: 1
Colour: ffda6b
EndChar

StartChar: _.sing.tajob
Encoding: 65626 -1 90
GlifName: _.sing.tajob
Width: 255
VWidth: 1197
GlyphClass: 2
Flags: MW
LayerCount: 2
Fore
SplineSet
50 81 m 1,0,-1
 128 159 l 1,1,-1
 205 81 l 1,2,-1
 128 5 l 1,3,-1
 50 81 l 1,0,-1
77 756 m 1,4,-1
 177 756 l 1,5,-1
 161 220 l 1,6,-1
 94 220 l 1,7,-1
 77 756 l 1,4,-1
EndSplineSet
Validated: 1
Colour: ffda6b
EndChar

StartChar: _.sing.soal
Encoding: 65627 -1 91
GlifName: _.sing.soal
Width: 460
VWidth: 1304
GlyphClass: 2
Flags: MW
LayerCount: 2
Fore
SplineSet
229 677 m 0,0,1
 191 677 191 677 160.5 648 c 128,-1,2
 130 619 130 619 130 575 c 0,3,4
 130 535 130 535 166 487 c 0,5,6
 199 442 199 442 212 426 c 0,7,8
 268 355 268 355 268 255 c 2,9,-1
 268 215 l 1,10,-1
 202 215 l 1,11,-1
 202 242 l 2,12,13
 202 329 202 329 127 410 c 0,14,15
 124 414 124 414 109 433 c 128,-1,16
 94 452 94 452 90 457 c 0,17,18
 50 513 50 513 50 570 c 2,19,-1
 50 579 l 2,20,21
 50 649.5 50 649.5 98 702 c 1,22,23
 144 759 144 759 229 759 c 0,24,25
 326 759 326 759 368 701.5 c 128,-1,26
 410 644 410 644 410 535 c 2,27,-1
 410 503 l 1,28,-1
 333 503 l 1,29,-1
 333 535 l 2,30,31
 333 677 333 677 229 677 c 0,0,1
157 77 m 1,32,-1
 235 155 l 1,33,-1
 312 77 l 1,34,-1
 235 -0 l 1,35,-1
 157 77 l 1,32,-1
EndSplineSet
Validated: 1
Colour: ffda6b
EndChar

StartChar: _.sing.beezafeh
Encoding: 65628 -1 92
GlifName: _.sing.beezafeh
Width: 494
VWidth: 1352
GlyphClass: 2
Flags: MW
LayerCount: 2
Fore
SplineSet
50 263 m 1,0,-1
 50 335 l 1,1,-1
 211 335 l 1,2,-1
 211 495 l 1,3,-1
 283 495 l 1,4,-1
 283 335 l 1,5,-1
 444 335 l 1,6,-1
 444 263 l 1,7,-1
 283 263 l 1,8,-1
 283 103 l 1,9,-1
 211 103 l 1,10,-1
 211 263 l 1,11,-1
 50 263 l 1,0,-1
EndSplineSet
Validated: 1
Colour: ffda6b
EndChar

StartChar: _.sing.menha
Encoding: 65629 -1 93
GlifName: _.sing.menha
Width: 500
VWidth: 0
GlyphClass: 2
Flags: MW
LayerCount: 2
Fore
SplineSet
50 200 m 1,0,-1
 50 300 l 1,1,-1
 450 300 l 1,2,-1
 450 200 l 1,3,-1
 50 200 l 1,0,-1
EndSplineSet
Validated: 1
Colour: ffda6b
EndChar

StartChar: _.sing.virgul
Encoding: 65631 -1 95
GlifName: _.sing.virgul
Width: 258
VWidth: 1197
GlyphClass: 2
Flags: MW
LayerCount: 2
Fore
SplineSet
130 103 m 1,0,1
 125 108 125 108 109 122.5 c 128,-1,2
 93 137 93 137 86 145 c 128,-1,3
 79 153 79 153 69 167.5 c 128,-1,4
 59 182 59 182 54.5 199 c 128,-1,5
 50 216 50 216 50 236 c 0,6,7
 51.5 278 51.5 278 80 326 c 0,8,9
 105 370 105 370 147 410 c 1,10,-1
 195 362 l 2,11,12
 192 360 192 360 176 341 c 0,13,14
 136 301 136 301 136 269 c 0,15,16
 136 259 136 259 141 249 c 128,-1,17
 146 239 146 239 152 233.5 c 128,-1,18
 158 228 158 228 167.5 219.5 c 128,-1,19
 177 211 177 211 180 208 c 0,20,21
 182 206 182 206 194 195 c 128,-1,22
 206 184 206 184 208 182 c 2,23,-1
 130 103 l 1,0,1
EndSplineSet
Validated: 1
Colour: ffda6b
EndChar

StartChar: _.sing.dot_virgul
Encoding: 65632 -1 96
GlifName: _.sing.dot_virgul
Width: 256
VWidth: 1304
GlyphClass: 2
Flags: MW
LayerCount: 2
Fore
SplineSet
129 210 m 1,0,1
 124 215 124 215 108 229.5 c 128,-1,2
 92 244 92 244 85.5 252 c 128,-1,3
 79 260 79 260 68.5 274.5 c 128,-1,4
 58 289 58 289 54 306 c 128,-1,5
 50 323 50 323 50 343 c 0,6,7
 53 429 53 429 147 517 c 1,8,-1
 194 469 l 1,9,10
 152 428 152 428 142 402 c 0,11,12
 136 392 136 392 136 380 c 2,13,-1
 136 374 l 2,14,15
 136 356 136 356 152 340 c 0,16,17
 171.5 323.5 171.5 323.5 206 289 c 1,18,-1
 129 210 l 1,0,1
51 66 m 1,19,-1
 129 144 l 1,20,-1
 206 66 l 1,21,-1
 129 -11 l 1,22,-1
 51 66 l 1,19,-1
EndSplineSet
Validated: 1
Colour: ffda6b
EndChar

StartChar: _.sing.2noqte
Encoding: 65633 -1 97
GlifName: _.sing.2noqte
Width: 255
VWidth: 1352
GlyphClass: 2
Flags: MW
LayerCount: 2
Fore
SplineSet
50 106 m 1,0,-1
 128 183 l 1,1,-1
 205 106 l 1,2,-1
 128 29 l 1,3,-1
 50 106 l 1,0,-1
50 327 m 1,4,-1
 128 406 l 1,5,-1
 205 327 l 1,6,-1
 128 250 l 1,7,-1
 50 327 l 1,4,-1
EndSplineSet
Validated: 1
Colour: ffda6b
EndChar

StartChar: _.sing.noqte
Encoding: 65634 -1 98
GlifName: _.sing.noqte
Width: 254
VWidth: 1352
GlyphClass: 2
Flags: MW
LayerCount: 2
Fore
SplineSet
50 136 m 1,0,-1
 128 214 l 1,1,-1
 204 136 l 1,2,-1
 128 59 l 1,3,-1
 50 136 l 1,0,-1
EndSplineSet
Validated: 1
Colour: ffda6b
EndChar

StartChar: _.sing.gheiomeh.right
Encoding: 65635 -1 99
GlifName: _.sing.gheiomeh.right
Width: 425
VWidth: 1352
GlyphClass: 2
Flags: MW
LayerCount: 2
Fore
SplineSet
172 -48 m 1,0,1
 50 98 50 98 50 241 c 0,2,3
 50 391 50 391 172 529 c 1,4,-1
 226 484 l 1,5,6
 132 377 132 377 132 241 c 0,7,8
 132 106 132 106 226 -1 c 1,9,-1
 172 -48 l 1,0,1
375 480 m 1,10,11
 330 424 330 424 308 371 c 128,-1,12
 286 318 286 318 286 241 c 0,13,14
 286 108 286 108 375 2 c 1,15,-1
 326 -40 l 1,16,17
 274 23 274 23 242 92 c 0,18,19
 212 156 212 156 212 241 c 128,-1,20
 212 326 212 326 242 390 c 0,21,22
 273 456 273 456 326 521 c 1,23,-1
 375 480 l 1,10,11
EndSplineSet
Validated: 1
Colour: ffda6b
EndChar

StartChar: _.sing.gheiomeh.left
Encoding: 65636 -1 100
GlifName: _.sing.gheiomeh.left
Width: 426
VWidth: 1352
GlyphClass: 2
Flags: MW
LayerCount: 2
Fore
SplineSet
139 241 m 0,0,1
 139 317 139 317 116.5 371 c 128,-1,2
 94 425 94 425 50 480 c 1,3,-1
 99 521 l 1,4,5
 152 457 152 457 184 385 c 0,6,7
 214 316 214 316 214 241 c 0,8,9
 214 158 214 158 184 92 c 0,10,11
 155 28 155 28 99 -40 c 1,12,-1
 50 2 l 1,13,14
 139 108 139 108 139 241 c 0,0,1
294 241 m 0,15,16
 294 374 294 374 199 484 c 1,17,-1
 253 529 l 1,18,19
 310 465 310 465 343 389 c 0,20,21
 376 317 376 317 376 241 c 0,22,23
 376 158 376 158 343 89.5 c 128,-1,24
 310 21 310 21 253 -48 c 1,25,-1
 199 -3 l 1,26,27
 294 110 294 110 294 241 c 0,15,16
EndSplineSet
Validated: 1
Colour: ffda6b
EndChar

StartChar: _.sing.parantez.right
Encoding: 65637 -1 101
GlifName: _.sing.parantez.right
Width: 309
VWidth: 1352
GlyphClass: 2
Flags: MW
LayerCount: 2
Fore
SplineSet
259 665 m 1,0,1
 199 578 199 578 167 494 c 0,2,3
 134 408.5 134 408.5 134 299 c 0,4,5
 134 110 134 110 259 -65 c 1,6,-1
 201 -106 l 1,7,8
 105 27 105 27 65 183 c 0,9,10
 50 240 50 240 50 299 c 0,11,12
 50 399 50 399 102 525 c 0,13,14
 144 622.5 144 622.5 201 705 c 1,15,-1
 259 665 l 1,0,1
EndSplineSet
Validated: 1
Colour: ffda6b
EndChar

StartChar: _.sing.parantez.left
Encoding: 65638 -1 102
GlifName: _.sing.parantez.left
Width: 309
VWidth: 1352
GlyphClass: 2
Flags: MW
LayerCount: 2
Fore
SplineSet
176 299 m 0,0,1
 176 406 176 406 142 494 c 0,2,3
 110 578 110 578 50 665 c 1,4,-1
 108 705 l 1,5,6
 116 696 116 696 160 624 c 0,7,8
 219 520 219 520 245 416 c 0,9,10
 259 358 259 358 259 299 c 0,11,12
 259 118 259 118 108 -106 c 1,13,-1
 50 -65 l 1,14,15
 141.5 62.5 141.5 62.5 167 199 c 0,16,17
 176 247 176 247 176 299 c 0,0,1
EndSplineSet
Validated: 1
Colour: ffda6b
EndChar

StartChar: _.sing.koroshe.right
Encoding: 65641 -1 105
GlifName: _.sing.koroshe.right
Width: 276
VWidth: 1197
GlyphClass: 2
Flags: MW
LayerCount: 2
Fore
SplineSet
50 -57 m 1,0,-1
 50 795 l 1,1,-1
 226 795 l 1,2,-1
 226 725 l 1,3,-1
 120 725 l 1,4,-1
 120 13 l 1,5,-1
 226 13 l 1,6,-1
 226 -57 l 1,7,-1
 50 -57 l 1,0,-1
EndSplineSet
Validated: 1
Colour: ffda6b
EndChar

StartChar: _.sing.koroshe.left
Encoding: 65642 -1 106
GlifName: _.sing.koroshe.left
Width: 276
VWidth: 1197
GlyphClass: 2
Flags: MW
LayerCount: 2
Fore
SplineSet
50 13 m 1,0,-1
 156 13 l 1,1,-1
 156 725 l 1,2,-1
 50 725 l 1,3,-1
 50 795 l 1,4,-1
 226 795 l 1,5,-1
 226 -57 l 1,6,-1
 50 -57 l 1,7,-1
 50 13 l 1,0,-1
EndSplineSet
Validated: 1
Colour: ffda6b
EndChar

StartChar: _.sing.akolad.right
Encoding: 65643 -1 107
GlifName: _.sing.akolad.right
Width: 327
VWidth: 1197
GlyphClass: 2
Flags: MW
LayerCount: 2
Fore
SplineSet
198 16 m 0,0,1
 198 -21 198 -21 213 -37.5 c 128,-1,2
 228 -54 228 -54 263 -54 c 2,3,-1
 277 -54 l 1,4,-1
 277 -125 l 1,5,-1
 245 -125 l 2,6,7
 187 -125 187 -125 160.5 -97 c 128,-1,8
 134 -69 134 -69 131 -9 c 0,9,10
 131 -7 131 -7 130.5 5 c 128,-1,11
 130 17 130 17 130 26 c 2,12,-1
 130 132 l 1,13,14
 124 266 124 266 50 266 c 1,15,-1
 50 336 l 1,16,17
 74 336 74 336 90 347 c 128,-1,18
 106 358 106 358 114 379.5 c 128,-1,19
 122 401 122 401 125.5 421.5 c 128,-1,20
 129 442 129 442 130 471 c 2,21,-1
 130 577 l 2,22,23
 130 586 130 586 130.5 598 c 128,-1,24
 131 610 131 610 131 612 c 0,25,26
 134 671 134 671 160 699 c 128,-1,27
 186 727 186 727 245 727 c 2,28,-1
 277 727 l 1,29,-1
 277 657 l 1,30,-1
 263 657 l 2,31,32
 228 657 228 657 213 640.5 c 128,-1,33
 198 624 198 624 198 587 c 0,34,35
 196 545 196 545 196 528 c 2,36,-1
 196 470 l 2,37,38
 196 328 196 328 125 301 c 1,39,40
 145 294 145 294 159 276 c 128,-1,41
 173 258 173 258 180 239 c 128,-1,42
 187 220 187 220 191 187.5 c 128,-1,43
 195 155 195 155 195.5 133.5 c 128,-1,44
 196 112 196 112 196 75 c 0,45,46
 196 58 196 58 198 16 c 0,0,1
EndSplineSet
Validated: 1
Colour: ffda6b
EndChar

StartChar: _.sing.akolad.left
Encoding: 65644 -1 108
GlifName: _.sing.akolad.left
Width: 327
VWidth: 1197
GlyphClass: 2
Flags: MW
LayerCount: 2
Fore
SplineSet
129 587 m 0,0,1
 126 625 126 625 112.5 641 c 128,-1,2
 99 657 99 657 62 657 c 2,3,-1
 50 657 l 1,4,-1
 50 727 l 1,5,-1
 82 727 l 2,6,7
 194 727 194 727 194 612 c 0,8,9
 195 597 195 597 195 540 c 0,10,11
 195 426 195 426 210 387 c 0,12,13
 230 336 230 336 277 336 c 1,14,-1
 277 266 l 1,15,16
 221.5 266 221.5 266 205 197 c 0,17,18
 196 161 196 161 196 130 c 0,19,20
 195 115 195 115 195 63 c 0,21,22
 195 6 195 6 194 -9 c 0,23,24
 194 -125 194 -125 82 -125 c 2,25,-1
 50 -125 l 1,26,-1
 50 -54 l 1,27,-1
 62 -54 l 2,28,29
 99 -54 99 -54 112.5 -38 c 128,-1,30
 126 -22 126 -22 129 16 c 0,31,32
 129 18 129 18 129.5 27 c 128,-1,33
 130 36 130 36 130 43 c 2,34,-1
 130 134 l 2,35,36
 130 197 130 197 146 239 c 0,37,38
 164 287 164 287 201 301 c 1,39,40
 147 322 147 322 135 414 c 0,41,42
 130 451 130 451 130 468 c 2,43,-1
 130 560 l 2,44,45
 130 568 130 568 129.5 577 c 128,-1,46
 129 586 129 586 129 587 c 0,0,1
EndSplineSet
Validated: 1
Colour: ffda6b
EndChar

StartChar: _.mark.maad
Encoding: 65645 -1 109
GlifName: _.mark.maad
Width: 0
VWidth: 1352
GlyphClass: 2
Flags: MW
LayerCount: 2
Fore
SplineSet
86 65 m 1,0,1
 84 60 84 60 70 32 c 128,-1,2
 56 4 56 4 54 0 c 1,3,-1
 0 26 l 1,4,-1
 32 92 l 2,5,6
 51 138 51 138 89 138 c 0,7,8
 98 138 98 138 107 135 c 0,9,10
 158 120 158 120 221 120 c 0,11,12
 279 120 279 120 323 136 c 0,13,14
 348.5 145 348.5 145 359 148 c 1,15,-1
 366 74 l 1,16,17
 310 54 310 54 287.5 49.5 c 128,-1,18
 265 45 265 45 216 45 c 0,19,20
 144 45 144 45 86 65 c 1,0,1
EndSplineSet
Validated: 1
Colour: ffda6b
EndChar

StartChar: _.mark.fatheh
Encoding: 65646 -1 110
GlifName: _.mark.fatheh
Width: 0
VWidth: 2310
GlyphClass: 2
Flags: MW
LayerCount: 2
Fore
SplineSet
0 45 m 1,0,-1
 256 165 l 1,1,-1
 278 114 l 1,2,-1
 23 -5 l 1,3,-1
 0 45 l 1,0,-1
EndSplineSet
Validated: 1
Colour: ffda6b
EndChar

StartChar: _.mark.kasreh
Encoding: 65647 -1 111
GlifName: _.mark.kasreh
Width: 0
VWidth: 2384
GlyphClass: 2
Flags: MW
LayerCount: 2
Fore
SplineSet
0 -125 m 1,0,-1
 256 -6 l 1,1,-1
 278 -56 l 1,2,-1
 23 -175 l 1,3,-1
 0 -125 l 1,0,-1
EndSplineSet
Validated: 1
Colour: ffda6b
EndChar

StartChar: _.mark.zameh
Encoding: 65648 -1 112
GlifName: _.mark.zameh
Width: 0
VWidth: 2277
GlyphClass: 2
Flags: MW
LayerCount: 2
Fore
SplineSet
195 221 m 0,0,1
 180 221 180 221 169 211.5 c 128,-1,2
 158 202 158 202 158 188 c 0,3,4
 158 161 158 161 185 134 c 2,5,-1
 208 111 l 1,6,-1
 167 82 l 1,7,8
 163 88 163 88 145.5 108.5 c 128,-1,9
 128 129 128 129 120 146 c 128,-1,10
 112 163 112 163 112 186 c 0,11,12
 112 226 112 226 137.5 253 c 128,-1,13
 163 280 163 280 203 280 c 1,14,15
 269 273 269 273 279 194 c 1,16,17
 279 112 279 112 193 74 c 2,18,-1
 23 -5 l 1,19,-1
 0 44 l 1,20,-1
 177 127 l 2,21,22
 200 138 200 138 212.5 151 c 128,-1,23
 225 164 225 164 225 188 c 0,24,25
 225 200 225 200 215.5 210.5 c 128,-1,26
 206 221 206 221 195 221 c 0,0,1
EndSplineSet
Validated: 5
Colour: ffda6b
EndChar

StartChar: _.mark.tanvin_fatheh
Encoding: 65649 -1 113
GlifName: _.mark.tanvin_fatheh
Width: 0
VWidth: 2280
GlyphClass: 2
Flags: MW
LayerCount: 2
Fore
SplineSet
0 49 m 1,0,-1
 256 168 l 1,1,-1
 278 118 l 1,2,-1
 23 -0 l 1,3,-1
 0 49 l 1,0,-1
0 170 m 1,4,-1
 256 289 l 1,5,-1
 278 240 l 1,6,-1
 23 120 l 1,7,-1
 0 170 l 1,4,-1
EndSplineSet
Validated: 1
Colour: ffda6b
EndChar

StartChar: _.mark.tanvin_kasreh
Encoding: 65650 -1 114
GlifName: _.mark.tanvin_kasreh
Width: 0
VWidth: 2413
GlyphClass: 2
Flags: MW
LayerCount: 2
Fore
SplineSet
0 -120 m 1,0,-1
 256 -1 l 1,1,-1
 279 -51 l 1,2,-1
 23 -170 l 1,3,-1
 0 -120 l 1,0,-1
0 -240 m 1,4,-1
 256 -122 l 1,5,-1
 279 -171 l 1,6,-1
 23 -291 l 1,7,-1
 0 -240 l 1,4,-1
EndSplineSet
Validated: 1
Colour: ffda6b
EndChar

StartChar: _.mark.tanvin_zameh
Encoding: 65651 -1 115
GlifName: _.mark.tanvin_zameh
Width: 0
VWidth: 2273
GlyphClass: 2
Flags: MW
LayerCount: 2
Fore
SplineSet
220 288 m 0,0,1
 254 288 254 288 275.5 260.5 c 128,-1,2
 297 233 297 233 297 197 c 0,3,4
 297 160 297 160 276 132 c 0,5,6
 266 118 266 118 245 102.5 c 128,-1,7
 224 87 224 87 193.5 71.5 c 128,-1,8
 163 56 163 56 141 45.5 c 128,-1,9
 119 35 119 35 84.5 20 c 128,-1,10
 50 5 50 5 42 2 c 1,11,-1
 18 52 l 1,12,-1
 68 74 l 1,13,14
 72 94 72 94 72 104 c 0,15,16
 72 125 72 125 58 125 c 0,17,18
 47 125 47 125 25 111 c 1,19,-1
 0 151 l 1,20,-1
 34 171 l 2,21,22
 47 178 47 178 61 178 c 0,23,24
 81 178 81 178 95 162 c 128,-1,25
 109 146 109 146 109 120 c 0,26,27
 109 107 109 107 106 92 c 1,28,-1
 160 117 l 1,29,-1
 155 125 l 1,30,31
 130 153 130 153 130 192 c 128,-1,32
 130 231 130 231 155 259.5 c 128,-1,33
 180 288 180 288 220 288 c 0,0,1
175 194 m 0,34,35
 175 177 175 177 187 161 c 0,36,37
 191 156 191 156 192.5 153 c 128,-1,38
 194 150 194 150 196 147.5 c 128,-1,39
 198 145 198 145 204 139 c 1,40,-1
 200 136 l 1,41,42
 244 158 244 158 244 194 c 0,43,44
 244 211 244 211 234.5 219.5 c 128,-1,45
 225 228 225 228 212 228 c 0,46,47
 197 228 197 228 186 219 c 128,-1,48
 175 210 175 210 175 194 c 0,34,35
EndSplineSet
Validated: 1
Colour: ffda6b
EndChar

StartChar: _.mark.tashdid
Encoding: 65652 -1 116
GlifName: _.mark.tashdid
Width: 0
VWidth: 1833
GlyphClass: 2
Flags: MW
LayerCount: 2
Fore
SplineSet
0 102 m 0,0,1
 0 119 0 119 1 129 c 0,2,3
 1 137 1 137 3 150 c 128,-1,4
 5 163 5 163 5 168 c 1,5,-1
 51 164 l 1,6,7
 46 137 46 137 46 120 c 0,8,9
 46 87 46 87 57 69.5 c 128,-1,10
 68 52 68 52 84 52 c 0,11,12
 105 52 105 52 123 81 c 128,-1,13
 141 110 141 110 141 158 c 0,14,15
 141 160 141 160 140.5 162 c 128,-1,16
 140 164 140 164 140 166 c 2,17,-1
 182 166 l 1,18,-1
 182 147 l 2,19,20
 182 104 182 104 193.5 80.5 c 128,-1,21
 205 57 205 57 220 57 c 0,22,23
 236 57 236 57 248.5 83 c 128,-1,24
 261 109 261 109 261 155 c 2,25,-1
 261 164 l 1,26,-1
 307 168 l 1,27,-1
 307 146 l 2,28,29
 307 76 307 76 280.5 38.5 c 128,-1,30
 254 1 254 1 218 1 c 0,31,32
 178 1 178 1 154 40 c 1,33,34
 142 22 142 22 119.5 10.5 c 128,-1,35
 97 -1 97 -1 73 -1 c 0,36,37
 41 -1 41 -1 20.5 24 c 128,-1,38
 0 49 0 49 0 102 c 0,0,1
EndSplineSet
Validated: 1
Colour: ffda6b
EndChar

StartChar: _.mark.hamze
Encoding: 65653 -1 117
GlifName: _.mark.hamze
Width: 0
VWidth: 1841
GlyphClass: 2
Flags: MW
LayerCount: 2
Fore
SplineSet
138 291 m 0,0,1
 108 291 108 291 89.5 276 c 128,-1,2
 71 261 71 261 71 233 c 128,-1,3
 71 205 71 205 91 186 c 128,-1,4
 111 167 111 167 138 162 c 1,5,-1
 256 218 l 1,6,-1
 279 167 l 1,7,-1
 23 49 l 1,8,-1
 0 98 l 1,9,-1
 78 134 l 1,10,11
 21 161 21 161 21 227 c 0,12,13
 21 275 21 275 52 310 c 128,-1,14
 83 345 83 345 137 345 c 0,15,16
 174 345 174 345 213 326 c 1,17,-1
 203 280 l 1,18,19
 161 291 161 291 138 291 c 0,0,1
EndSplineSet
Validated: 1
Colour: ffda6b
EndChar

StartChar: _.mark.sakon
Encoding: 65654 -1 118
GlifName: _.mark.sakon
Width: 0
VWidth: 2099
GlyphClass: 2
Flags: MW
LayerCount: 2
Fore
SplineSet
82 229 m 0,0,1
 118 229 118 229 141 205 c 128,-1,2
 164 181 164 181 164 145 c 128,-1,3
 164 109 164 109 141 84.5 c 128,-1,4
 118 60 118 60 82 60 c 0,5,6
 26 60 26 60 7 112 c 0,7,8
 0 125 0 125 0 145 c 0,9,10
 0 178 0 178 22.5 203.5 c 128,-1,11
 45 229 45 229 82 229 c 0,0,1
118 144 m 0,12,13
 118 159 118 159 107 170 c 128,-1,14
 96 181 96 181 80 181 c 0,15,16
 65 181 65 181 54 170 c 128,-1,17
 43 159 43 159 43 144 c 128,-1,18
 43 129 43 129 54 118 c 128,-1,19
 65 107 65 107 80 107 c 0,20,21
 96 107 96 107 107 117.5 c 128,-1,22
 118 128 118 128 118 144 c 0,12,13
EndSplineSet
Validated: 1
Colour: ffda6b
EndChar

StartChar: _.mark.alef
Encoding: 65655 -1 119
GlifName: _.mark.alef
Width: 0
VWidth: 2091
GlyphClass: 2
Flags: MW
LayerCount: 2
Fore
SplineSet
0 245 m 1,0,-1
 52 263 l 1,1,2
 74 203 74 203 81.5 155.5 c 128,-1,3
 89 108 89 108 89 26 c 1,4,-1
 42 26 l 1,5,6
 42 128 42 128 0 245 c 1,0,-1
EndSplineSet
Validated: 1
Colour: ffda6b
EndChar

StartChar: _.sing.momaiez
Encoding: 65656 -1 120
GlifName: _.sing.momaiez
Width: 402
VWidth: 1352
GlyphClass: 2
Flags: MW
LayerCount: 2
Fore
SplineSet
50 -189 m 1,0,-1
 265 410 l 1,1,-1
 352 400 l 1,2,-1
 141 -198 l 1,3,4
 130.5 -201 130.5 -201 120 -201 c 0,5,6
 96 -201 96 -201 50 -189 c 1,0,-1
EndSplineSet
Validated: 1
Colour: ffda6b
EndChar

StartChar: _.sing.hezare
Encoding: 65657 -1 121
GlifName: _.sing.hezare
Width: 222
VWidth: 1197
GlyphClass: 2
Flags: MW
LayerCount: 2
Fore
SplineSet
50 900 m 1,0,-1
 172 900 l 1,1,-1
 130 700 l 1,2,-1
 91 700 l 1,3,-1
 50 900 l 1,0,-1
EndSplineSet
Validated: 1
Colour: ffda6b
EndChar

StartChar: _.sing.darsad
Encoding: 65658 -1 122
GlifName: _.sing.darsad
Width: 620
VWidth: 1197
GlyphClass: 2
Flags: MW
LayerCount: 2
Fore
SplineSet
50 88 m 1,0,-1
 471 736 l 1,1,-1
 570 709 l 1,2,-1
 147 63 l 1,3,-1
 50 88 l 1,0,-1
94 661 m 1,4,5
 121 714 121 714 155 763 c 1,6,7
 267 702 267 702 267 677 c 0,8,9
 267 654 267 654 216 580 c 1,10,11
 112 653 112 653 94 661 c 1,4,5
371 132 m 1,12,13
 396.5 180 396.5 180 434 234 c 1,14,15
 545 170 545 170 545 139 c 0,16,17
 545 128 545 128 493 52 c 1,18,19
 382 126 382 126 371 132 c 1,12,13
EndSplineSet
Validated: 1
Colour: ffda6b
EndChar

StartChar: _.sing.mosavi
Encoding: 65659 -1 123
GlifName: _.sing.mosavi
Width: 488
VWidth: 1197
GlyphClass: 2
Flags: MW
LayerCount: 2
Fore
SplineSet
50 124 m 1,0,-1
 50 194 l 1,1,-1
 438 194 l 1,2,-1
 438 124 l 1,3,-1
 50 124 l 1,0,-1
50 300 m 1,4,-1
 50 370 l 1,5,-1
 438 370 l 1,6,-1
 438 300 l 1,7,-1
 50 300 l 1,4,-1
EndSplineSet
Validated: 1
Colour: ffda6b
EndChar

StartChar: _.beh_k.init
Encoding: 65661 -1 125
GlifName: _.beh_k.init
Width: 327
VWidth: 1197
GlyphClass: 2
UnlinkRmOvrlpSave: 1
Flags: MW
LayerCount: 2
Fore
SplineSet
-50 49 m 0,0,1
 -50 69 -50 69 -35 84.5 c 128,-1,2
 -20 100 -20 100 -1 100 c 2,3,-1
 33 100 l 2,4,5
 114 100 114 100 186 136 c 0,6,7
 186 137 186 137 186.5 141 c 128,-1,8
 187 145 187 145 187 147 c 0,9,10
 187 194 187 194 143 335 c 1,11,-1
 220 400 l 1,12,13
 263 273 263 273 263 190 c 0,14,15
 263 0 263 0 28 0 c 2,16,-1
 -1 -0 l 2,17,18
 -19 -0 -19 -0 -34.5 15 c 128,-1,19
 -50 30 -50 30 -50 49 c 0,0,1
EndSplineSet
Colour: ffda6b
EndChar

StartChar: _.beh_k.medi
Encoding: 65662 -1 126
GlifName: _.beh_k.medi
Width: 418
VWidth: 1304
GlyphClass: 2
UnlinkRmOvrlpSave: 1
Flags: MW
LayerCount: 2
Fore
SplineSet
218 68 m 1,0,1
 185 31 185 31 142.5 15.5 c 128,-1,2
 100 0 100 0 25 0 c 2,3,-1
 -1 -0 l 2,4,5
 -19 -0 -19 -0 -34.5 15 c 128,-1,6
 -50 30 -50 30 -50 49 c 0,7,8
 -50 69 -50 69 -35 84.5 c 128,-1,9
 -20 100 -20 100 -1 100 c 2,10,-1
 25 100 l 2,11,12
 118 100 118 100 184 135 c 1,13,-1
 184 315 l 1,14,-1
 264 315 l 1,15,-1
 264 160 l 2,16,17
 264 126 264 126 296 119 c 0,18,19
 357 100 357 100 418 100 c 1,20,-1
 418 -0 l 1,21,22
 325 -0 325 -0 274 27 c 0,23,24
 237 45 237 45 218 68 c 1,0,1
EndSplineSet
Colour: ffda6b
EndChar

StartChar: _.sing.3noqte
Encoding: 65663 -1 127
GlifName: _.sing.3noqte
Width: 767
VWidth: 1304
GlyphClass: 2
Flags: MW
LayerCount: 2
Fore
SplineSet
50 136 m 1,0,-1
 128 214 l 1,1,-1
 205 136 l 1,2,-1
 128 59 l 1,3,-1
 50 136 l 1,0,-1
300 136 m 1,4,-1
 377 214 l 1,5,-1
 454 136 l 1,6,-1
 377 59 l 1,7,-1
 300 136 l 1,4,-1
562 136 m 1,8,-1
 640 214 l 1,9,-1
 717 136 l 1,10,-1
 640 59 l 1,11,-1
 562 136 l 1,8,-1
EndSplineSet
Validated: 1
Colour: ffda6b
EndChar

StartChar: s.khat_tire
Encoding: 8208 8208 138
GlifName: s.khat_tire
Width: 504
VWidth: 0
GlyphClass: 2
Flags: MW
LayerCount: 2
Fore
SplineSet
55 229 m 1,0,-1
 55 307 l 1,1,-1
 451 307 l 1,2,-1
 451 229 l 1,3,-1
 55 229 l 1,0,-1
EndSplineSet
Validated: 1
Colour: d7d7d7
EndChar

StartChar: s.zwj
Encoding: 8205 8205 174
GlifName: s.zwj
Width: 0
VWidth: 1331
GlyphClass: 2
Flags: MW
LayerCount: 2
Fore
SplineSet
25 -327 m 1,0,-1
 -25 -327 l 1,1,-1
 -25 579 l 1,2,-1
 -111 491 l 1,3,-1
 -141 521 l 1,4,-1
 -30 631 l 1,5,-1
 -141 740 l 1,6,-1
 -111 772 l 1,7,-1
 0 660 l 1,8,-1
 111 772 l 1,9,-1
 141 740 l 1,10,-1
 30 631 l 1,11,-1
 141 521 l 1,12,-1
 111 491 l 1,13,-1
 25 579 l 1,14,-1
 25 -327 l 1,0,-1
EndSplineSet
Validated: 1
Colour: d7d7d7
EndChar

StartChar: s.tagsim
Encoding: 247 247 182
GlifName: s.tagsim
Width: 564
VWidth: 1278
GlyphClass: 2
Flags: MW
LayerCount: 2
Fore
SplineSet
59 352 m 1,0,-1
 59 429 l 1,1,-1
 506 429 l 1,2,-1
 506 352 l 1,3,-1
 59 352 l 1,0,-1
234 204 m 1,4,-1
 234 299 l 1,5,-1
 330 299 l 1,6,-1
 330 204 l 1,7,-1
 234 204 l 1,4,-1
234 482 m 1,8,-1
 234 577 l 1,9,-1
 330 577 l 1,10,-1
 330 482 l 1,11,-1
 234 482 l 1,8,-1
EndSplineSet
Validated: 1
Colour: d7d7d7
EndChar

StartChar: s.zwnj
Encoding: 8204 8204 215
GlifName: s.zwnj
Width: 0
VWidth: 1331
GlyphClass: 2
Flags: MW
LayerCount: 2
Fore
SplineSet
-25 -308 m 1,0,-1
 -25 710 l 1,1,-1
 25 710 l 1,2,-1
 25 -308 l 1,3,-1
 -25 -308 l 1,0,-1
EndSplineSet
Validated: 1
Colour: d7d7d7
EndChar

StartChar: s.dotted_circle
Encoding: 9676 9676 220
GlifName: s.dotted_circle
Width: 576
VWidth: 1890
GlyphClass: 2
Flags: MW
LayerCount: 2
Fore
SplineSet
60 181 m 128,-1,1
 60 203 60 203 82 203 c 128,-1,2
 104 203 104 203 104 182 c 2,3,-1
 104 180 l 2,4,5
 104 159 104 159 82 159 c 128,-1,0
 60 159 60 159 60 181 c 128,-1,1
76 103 m 128,-1,7
 76 126 76 126 98 126 c 128,-1,8
 120 126 120 126 120 103 c 128,-1,9
 120 80 120 80 98 80 c 128,-1,6
 76 80 76 80 76 103 c 128,-1,7
76 259 m 128,-1,11
 76 282 76 282 98 282 c 128,-1,12
 120 282 120 282 120 259 c 128,-1,13
 120 236 120 236 99 236 c 0,14,10
 76 236 76 236 76 259 c 128,-1,11
120 34 m 128,-1,16
 120 56 120 56 142 57 c 0,17,18
 164 56 164 56 165 34 c 0,19,20
 164 12 164 12 142 12 c 128,-1,15
 120 12 120 12 120 34 c 128,-1,16
120 326 m 128,-1,22
 120 348 120 348 142 349 c 0,23,24
 164 348 164 348 165 326 c 0,25,26
 164 304 164 304 142 304 c 128,-1,21
 120 304 120 304 120 326 c 128,-1,22
187 -8 m 128,-1,28
 187 14 187 14 210 14 c 128,-1,29
 233 14 233 14 233 -8 c 128,-1,30
 233 -30 233 -30 210 -30 c 128,-1,27
 187 -30 187 -30 187 -8 c 128,-1,28
187 372 m 128,-1,32
 187 394 187 394 210 394 c 128,-1,33
 233 394 233 394 233 372 c 128,-1,34
 233 350 233 350 210 350 c 128,-1,31
 187 350 187 350 187 372 c 128,-1,32
310 -26 m 128,-1,36
 310 -48 310 -48 288 -48 c 128,-1,37
 266 -48 266 -48 265 -26 c 0,38,39
 266 -4 266 -4 288 -3 c 0,40,35
 310 -4 310 -4 310 -26 c 128,-1,36
288 410 m 128,-1,42
 310 410 310 410 310 388 c 128,-1,43
 310 366 310 366 288 365 c 0,44,45
 266 366 266 366 265 388 c 0,46,41
 266 410 266 410 288 410 c 128,-1,42
344 -8 m 0,47,48
 344 14 344 14 367 14 c 128,-1,49
 390 14 390 14 390 -8 c 0,50,51
 390 -29 390 -29 367 -31 c 0,52,53
 344 -29 344 -29 344 -8 c 0,47,48
344 372 m 0,54,55
 344 394 344 394 367 394 c 128,-1,56
 390 394 390 394 390 372 c 0,57,58
 390 351 390 351 367 349 c 0,59,60
 344 351 344 351 344 372 c 0,54,55
412 34 m 128,-1,62
 412 56 412 56 434 57 c 0,63,64
 456 56 456 56 456 34 c 128,-1,65
 456 12 456 12 434 12 c 128,-1,61
 412 12 412 12 412 34 c 128,-1,62
412 326 m 128,-1,67
 412 348 412 348 434 349 c 0,68,69
 456 348 456 348 456 326 c 128,-1,70
 456 304 456 304 434 304 c 128,-1,66
 412 304 412 304 412 326 c 128,-1,67
456 103 m 128,-1,72
 456 126 456 126 478 126 c 0,73,74
 499 126 499 126 501 103 c 0,75,76
 499 80 499 80 478 80 c 0,77,71
 456 80 456 80 456 103 c 128,-1,72
456 259 m 128,-1,79
 456 282 456 282 478 282 c 0,80,81
 499 282 499 282 501 259 c 0,82,83
 499 236 499 236 478 236 c 0,84,78
 456 236 456 236 456 259 c 128,-1,79
472 181 m 128,-1,86
 472 203 472 203 494 203 c 128,-1,87
 516 203 516 203 517 182 c 2,88,-1
 517 180 l 2,89,90
 516 159 516 159 494 159 c 128,-1,85
 472 159 472 159 472 181 c 128,-1,86
EndSplineSet
Validated: 1
Colour: d7d7d7
EndChar

StartChar: s.figure_dash
Encoding: 8210 8210 224
GlifName: s.figure_dash
Width: 600
VWidth: 0
GlyphClass: 2
Flags: MW
LayerCount: 2
Fore
SplineSet
55 229 m 1,0,-1
 55 307 l 1,1,-1
 547 307 l 1,2,-1
 547 229 l 1,3,-1
 55 229 l 1,0,-1
EndSplineSet
Validated: 1
Colour: d7d7d7
EndChar

StartChar: s.em_dash
Encoding: 8212 8212 263
GlifName: s.em_dash
Width: 1200
VWidth: 1175
GlyphClass: 2
Flags: MW
LayerCount: 2
Fore
SplineSet
55 229 m 1,0,-1
 55 307 l 1,1,-1
 1147 307 l 1,2,-1
 1147 229 l 1,3,-1
 55 229 l 1,0,-1
EndSplineSet
Validated: 1
Colour: d7d7d7
EndChar

StartChar: s.bullet
Encoding: 8226 8226 278
GlifName: s.bullet
Width: 602
VWidth: 1331
GlyphClass: 2
Flags: MW
LayerCount: 2
Fore
SplineSet
295 650 m 0,0,1
 402 650 402 650 467 592 c 128,-1,2
 532 534 532 534 532 432 c 0,3,4
 532 338 532 338 464 270 c 128,-1,5
 396 202 396 202 302 202 c 0,6,7
 217 202 217 202 147 266 c 128,-1,8
 77 330 77 330 77 410 c 0,9,10
 77 520 77 520 142 585 c 128,-1,11
 207 650 207 650 295 650 c 0,0,1
EndSplineSet
Validated: 1
Colour: d7d7d7
EndChar

StartChar: s.en_dash
Encoding: 8211 8211 310
GlifName: s.en_dash
Width: 600
VWidth: 1175
GlyphClass: 2
Flags: MW
LayerCount: 2
Fore
SplineSet
55 229 m 1,0,-1
 55 307 l 1,1,-1
 547 307 l 1,2,-1
 547 229 l 1,3,-1
 55 229 l 1,0,-1
EndSplineSet
Validated: 1
Colour: d7d7d7
EndChar

StartChar: s.horizontal_bar
Encoding: 8213 8213 316
GlifName: s.horizontal_bar
Width: 2400
VWidth: 1175
GlyphClass: 2
Flags: MW
LayerCount: 2
Fore
SplineSet
55 229 m 1,0,-1
 55 307 l 1,1,-1
 2347 307 l 1,2,-1
 2347 229 l 1,3,-1
 55 229 l 1,0,-1
EndSplineSet
Validated: 1
Colour: d7d7d7
EndChar

StartChar: s.lrm
Encoding: 8206 8206 317
GlifName: s.lrm
Width: 0
VWidth: 1331
GlyphClass: 2
Flags: MW
LayerCount: 2
Fore
SplineSet
-25 -308 m 1,0,-1
 -25 676 l 1,1,-1
 196 676 l 1,2,-1
 106 759 l 1,3,-1
 138 790 l 1,4,-1
 280 651 l 1,5,-1
 138 510 l 1,6,-1
 106 544 l 1,7,-1
 196 628 l 1,8,-1
 22 628 l 1,9,-1
 22 -308 l 1,10,-1
 -25 -308 l 1,0,-1
EndSplineSet
Validated: 1
Colour: d7d7d7
EndChar

StartChar: s.rlm
Encoding: 8207 8207 346
GlifName: s.rlm
Width: 0
VWidth: 1331
GlyphClass: 2
Flags: MW
LayerCount: 2
Fore
SplineSet
22 676 m 1,0,-1
 22 -308 l 1,1,-1
 -25 -308 l 1,2,-1
 -25 628 l 1,3,-1
 -196 628 l 1,4,-1
 -108 544 l 1,5,-1
 -138 510 l 1,6,-1
 -280 651 l 1,7,-1
 -138 790 l 1,8,-1
 -108 759 l 1,9,-1
 -196 676 l 1,10,-1
 22 676 l 1,0,-1
EndSplineSet
Validated: 1
Colour: d7d7d7
EndChar

StartChar: _.mark.he_yeh
Encoding: 65664 -1 400
GlifName: _.mark.he_yeh
Width: 209
VWidth: 1304
GlyphClass: 1
UnlinkRmOvrlpSave: 1
Flags: MW
LayerCount: 2
Fore
SplineSet
192 90 m 2,0,1
 192 96 192 96 171.5 102.5 c 128,-1,2
 151 109 151 109 141 109 c 0,3,4
 113 116 113 116 113 141 c 0,5,6
 113 193 113 193 178 234 c 0,7,8
 198 245 198 245 210 245 c 1,9,-1
 210 200 l 1,10,11
 174 200 174 200 147 162 c 1,12,-1
 145 156 l 2,13,14
 145 150 145 150 180 138 c 0,15,16
 216 126 216 126 221 120 c 0,17,18
 226 112 226 112 226 92 c 0,19,20
 226 69 226 69 206 49 c 0,21,22
 151 -6 151 -6 0 -6 c 1,23,-1
 17 42 l 1,24,25
 136 42 136 42 178 75 c 0,26,27
 192 86 192 86 192 89 c 2,28,-1
 192 90 l 2,0,1
EndSplineSet
EndChar

StartChar: uni0000
Encoding: 0 0 401
GlifName: uni0000
Width: 497
VWidth: 0
GlyphClass: 2
Flags: MW
LayerCount: 2
Fore
SplineSet
59 -251 m 1,0,-1
 59 709 l 1,1,-1
 438 709 l 1,2,-1
 438 -251 l 1,3,-1
 59 -251 l 1,0,-1
105 -181 m 1,4,-1
 387 -181 l 1,5,-1
 387 648 l 1,6,-1
 105 648 l 1,7,-1
 105 -181 l 1,4,-1
EndSplineSet
Validated: 1
EndChar

StartChar: _.ghaf.medi
Encoding: 65665 -1 402
GlifName: _.ghaf.medi
Width: 536
VWidth: 0
GlyphClass: 2
Flags: MW
LayerCount: 2
Fore
SplineSet
-50 50 m 128,-1,1
 -50 69 -50 69 -35 84.5 c 128,-1,2
 -20 100 -20 100 -1 100 c 2,3,-1
 89 100 l 2,4,5
 140 100 140 100 197.5 117.5 c 128,-1,6
 255 135 255 135 260 160 c 1,7,8
 258.5 205 258.5 205 236 253 c 0,9,10
 163 401 163 401 -1 500 c 1,11,-1
 36 620 l 1,12,-1
 433 800 l 1,13,-1
 407 692 l 1,14,-1
 98 553 l 1,15,16
 193 481 193 481 257 386 c 1,17,-1
 257 385 l 2,18,19
 260 380 260 380 266 370.5 c 128,-1,20
 272 361 272 361 275 356 c 0,21,22
 291 328 291 328 311 287.5 c 128,-1,23
 331 247 331 247 342 224.5 c 128,-1,24
 353 202 353 202 372.5 174.5 c 128,-1,25
 392 147 392 147 412 133 c 128,-1,26
 432 119 432 119 463.5 109.5 c 128,-1,27
 495 100 495 100 536 100 c 1,28,-1
 536 -0 l 1,29,30
 444 0 444 0 393 29 c 128,-1,31
 342 58 342 58 306 116 c 1,32,33
 259 0 259 0 80 0 c 2,34,-1
 -1 -0 l 2,35,36
 -20 1 -20 1 -35 16 c 128,-1,0
 -50 31 -50 31 -50 50 c 128,-1,1
67 698 m 1,37,-1
 82 758 l 1,38,-1
 361 884 l 1,39,-1
 349 826 l 1,40,-1
 67 698 l 1,37,-1
EndSplineSet
Validated: 1
Colour: ffda6b
EndChar

StartChar: _.ghaf.init
Encoding: 65666 -1 403
GlifName: _.ghaf.init
Width: 497
VWidth: 0
GlyphClass: 2
Flags: MW
LayerCount: 2
Fore
SplineSet
-50 50 m 128,-1,1
 -50 69 -50 69 -35 84.5 c 128,-1,2
 -20 100 -20 100 -1 100 c 2,3,-1
 89 100 l 2,4,5
 140 100 140 100 197.5 117.5 c 128,-1,6
 255 135 255 135 260 160 c 1,7,8
 255 244 255 244 183 338.5 c 128,-1,9
 111 433 111 433 -1 500 c 1,10,-1
 36 620 l 1,11,-1
 433 800 l 1,12,-1
 407 692 l 1,13,-1
 98 553 l 1,14,15
 201 474 201 474 261 378.5 c 128,-1,16
 321 283 321 283 321 198 c 0,17,18
 320 96 320 96 254 48 c 128,-1,19
 188 0 188 0 80 0 c 2,20,-1
 -1 -0 l 2,21,22
 -20 1 -20 1 -35 16 c 128,-1,0
 -50 31 -50 31 -50 50 c 128,-1,1
67 698 m 1,23,-1
 82 758 l 1,24,-1
 361 884 l 1,25,-1
 349 826 l 1,26,-1
 67 698 l 1,23,-1
EndSplineSet
Validated: 1
Colour: ffda6b
EndChar

StartChar: _.la.isol.fa
Encoding: 65667 -1 404
Width: 562
VWidth: 0
Flags: MW
LayerCount: 2
Fore
SplineSet
64 603 m 0,0,1
 64 625 64 625 114 682 c 1,2,3
 125 685 125 685 128 676 c 2,4,-1
 275 268 l 2,5,6
 277 261 277 261 277 246 c 0,7,8
 277 218 277 218 268 191.5 c 128,-1,9
 259 165 259 165 249 165 c 0,10,11
 245 165 245 165 243 168 c 2,12,-1
 75 562 l 2,13,14
 64 589 64 589 64 603 c 0,0,1
114 50 m 128,-1,16
 114 69 114 69 129 84.5 c 128,-1,17
 144 100 144 100 163 100 c 2,18,-1
 167 100 l 2,19,20
 255 100 255 100 335 140.5 c 128,-1,21
 415 181 415 181 434 218 c 1,22,-1
 409 700 l 1,23,-1
 409 718 l 2,24,25
 409 744 409 744 421.5 758 c 128,-1,26
 434 772 434 772 485 800 c 1,27,28
 498 800 498 800 498 789 c 2,29,-1
 498 283 l 2,30,31
 498 133 498 133 392 60 c 0,32,33
 305 0 305 0 164 0 c 0,34,35
 145 1 145 1 129.5 16 c 128,-1,15
 114 31 114 31 114 50 c 128,-1,16
EndSplineSet
Validated: 1
Colour: ffda6b
EndChar

StartChar: _.la.fina.fa
Encoding: 65668 -1 405
Width: 674
VWidth: 0
Flags: MW
LayerCount: 2
Fore
SplineSet
64 603 m 0,0,1
 64 625 64 625 114 682 c 1,2,3
 125 685 125 685 128 676 c 2,4,-1
 275 268 l 2,5,6
 277 261 277 261 277 246 c 0,7,8
 277 218 277 218 268 191.5 c 128,-1,9
 259 165 259 165 249 165 c 0,10,11
 245 165 245 165 243 168 c 2,12,-1
 75 562 l 2,13,14
 64 589 64 589 64 603 c 0,0,1
114 50 m 128,-1,16
 114 69 114 69 129 84.5 c 128,-1,17
 144 100 144 100 163 100 c 2,18,-1
 167 100 l 2,19,20
 255 100 255 100 335 140.5 c 128,-1,21
 415 181 415 181 434 218 c 1,22,-1
 409 700 l 1,23,-1
 409 718 l 2,24,25
 409 744 409 744 421.5 758 c 128,-1,26
 434 772 434 772 485 800 c 1,27,28
 498 800 498 800 498 789 c 2,29,-1
 498 279 l 2,30,31
 501 238 501 238 508.5 209.5 c 128,-1,32
 516 181 516 181 533.5 154 c 128,-1,33
 551 127 551 127 586.5 113.5 c 128,-1,34
 622 100 622 100 674 100 c 1,35,-1
 674 -0 l 1,36,37
 577 0 577 0 528 34 c 128,-1,38
 479 68 479 68 460 130 c 1,39,40
 434 90 434 90 392 60 c 0,41,42
 305 0 305 0 164 0 c 0,43,44
 145 1 145 1 129.5 16 c 128,-1,15
 114 31 114 31 114 50 c 128,-1,16
EndSplineSet
Validated: 1
Colour: ffda6b
EndChar

StartChar: _.sing.alef_maad
Encoding: 65671 -1 408
Width: 505
VWidth: 1352
Flags: MW
LayerCount: 2
Fore
SplineSet
309 44 m 0,0,1
 297 44 297 44 240.5 49.5 c 128,-1,2
 184 55 184 55 171 55 c 0,3,4
 96 55 96 55 77 0 c 1,5,-1
 50 31 l 1,6,7
 72 89 72 89 106 118 c 128,-1,8
 140 147 140 147 199 147 c 0,9,10
 211 147 211 147 262.5 141.5 c 128,-1,11
 314 136 314 136 325 136 c 0,12,13
 409 136 409 136 448 216 c 1,14,-1
 455 166 l 1,15,16
 440 104 440 104 406.5 74 c 128,-1,17
 373 44 373 44 309 44 c 0,0,1
EndSplineSet
Validated: 1
Colour: ffda6b
EndChar

StartChar: _.sing.star
Encoding: 65672 -1 409
Width: 503
VWidth: 1197
Flags: MW
LayerCount: 2
Fore
SplineSet
221 555 m 1,0,1
 220 560 220 560 219 582 c 128,-1,2
 218 604 218 604 217 609 c 0,3,4
 217 611 217 611 216.5 620 c 128,-1,5
 216 629 216 629 216 635 c 2,6,-1
 216 714 l 1,7,-1
 286 714 l 1,8,-1
 286 660 l 2,9,10
 286 604.5 286 604.5 280 555 c 1,11,12
 287 557 287 557 328.5 573.5 c 128,-1,13
 370 590 370 590 379 593 c 2,14,-1
 430 609 l 1,15,-1
 453 543 l 1,16,-1
 401 525 l 1,17,18
 310 501 310 501 299 498 c 1,19,20
 308 487.5 308 487.5 365 417 c 1,21,-1
 397 373 l 1,22,-1
 341 332 l 1,23,-1
 309 375 l 2,24,25
 282 412 282 412 252 463 c 1,26,27
 197 379 197 379 194 375 c 2,28,-1
 162 332 l 1,29,-1
 105 373 l 1,30,-1
 136 417 l 2,31,32
 147 428 147 428 203 498 c 1,33,34
 194 500 194 500 152.5 511 c 128,-1,35
 111 522 111 522 102 525 c 2,36,-1
 50 543 l 1,37,-1
 72 609 l 1,38,-1
 123 593 l 2,39,40
 132 590 132 590 173 573.5 c 128,-1,41
 214 557 214 557 221 555 c 1,0,1
EndSplineSet
Validated: 1
Colour: ffda6b
EndChar

